<?xml version="1.0" encoding="UTF-8"?>
<!DOCTYPE svg PUBLIC "-//W3C//DTD SVG 1.1//EN" "http://www.w3.org/Graphics/SVG/1.1/DTD/svg11.dtd">
<svg xmlns="http://www.w3.org/2000/svg" version="1.1" width="457px" height="535px" style="shape-rendering:geometricPrecision; text-rendering:geometricPrecision; image-rendering:optimizeQuality; fill-rule:evenodd; clip-rule:evenodd" xmlns:xlink="http://www.w3.org/1999/xlink">
<g><path style="opacity:0.056" fill="#000000" d="M 349.5,91.5 C 348.194,89.5273 346.527,87.8606 344.5,86.5C 340.855,80.8546 336.188,76.1879 330.5,72.5C 329.738,70.7376 328.404,69.7376 326.5,69.5C 325.564,68.0256 324.23,67.0256 322.5,66.5C 322.158,65.6618 321.492,65.3284 320.5,65.5C 320.027,64.0937 319.027,63.427 317.5,63.5C 316.341,61.7497 314.674,60.7497 312.5,60.5C 308.151,57.6589 303.484,55.3255 298.5,53.5C 297.22,52.0687 295.553,51.4021 293.5,51.5C 292.22,50.0687 290.553,49.4021 288.5,49.5C 276.974,44.6134 264.974,40.9467 252.5,38.5C 250.972,37.6908 249.306,37.0241 247.5,36.5C 240.88,35.397 234.214,34.7303 227.5,34.5C 215.676,32.6612 203.676,32.3278 191.5,33.5C 183.593,33.7092 175.927,34.7092 168.5,36.5C 166.585,36.2155 164.919,36.5489 163.5,37.5C 157.073,37.9804 151.073,39.647 145.5,42.5C 143.447,42.4021 141.78,43.0687 140.5,44.5C 137.759,44.7073 135.426,45.7073 133.5,47.5C 129.58,48.1266 126.247,49.7933 123.5,52.5C 122.508,52.3284 121.842,52.6618 121.5,53.5C 119.326,53.7497 117.659,54.7497 116.5,56.5C 114.596,56.7376 113.262,57.7376 112.5,59.5C 110.596,59.7376 109.262,60.7376 108.5,62.5C 100.544,67.4555 93.8773,73.7888 88.5,81.5C 86.4131,82.5846 85.0798,84.2512 84.5,86.5C 83.0937,86.9731 82.427,87.9731 82.5,89.5C 80.0764,92.0078 78.4097,95.0078 77.5,98.5C 72.3054,98.1795 67.3054,98.5128 62.5,99.5C 58.7144,99.32 55.381,100.32 52.5,102.5C 49.911,102.461 47.911,103.461 46.5,105.5C 42.9796,106.353 40.3129,108.353 38.5,111.5C 35.8103,113.193 33.8103,115.527 32.5,118.5C 31.0937,118.973 30.427,119.973 30.5,121.5C 27.9521,124.996 26.6187,128.996 26.5,133.5C 25.8356,136.146 25.5022,138.979 25.5,142C 25.2857,146.133 25.9524,149.966 27.5,153.5C 28.1266,157.42 29.7933,160.753 32.5,163.5C 32.427,165.027 33.0937,166.027 34.5,166.5C 34.8333,167.5 35.5,168.167 36.5,168.5C 37.9108,170.914 39.9108,172.581 42.5,173.5C 42.9731,174.906 43.9731,175.573 45.5,175.5C 43.5,183.833 41.5,192.167 39.5,200.5C 37.9605,202.838 37.2938,205.505 37.5,208.5C 35.7061,214.583 34.5394,220.916 34,227.5C 33.1743,238.674 33.341,249.674 34.5,260.5C 33.306,271.668 33.6393,282.668 35.5,293.5C 35.5,297.5 35.5,301.5 35.5,305.5C 34.6138,320.001 33.9471,334.667 33.5,349.5C 33.194,361.171 33.194,372.505 33.5,383.5C 33.4435,408.507 33.7769,433.507 34.5,458.5C 35.5669,467.756 36.4003,477.09 37,486.5C 37.1187,489.995 38.2854,492.995 40.5,495.5C 38.4959,494.327 36.9959,492.66 36,490.5C 34.6684,476.858 33.6684,463.192 33,449.5C 31.226,402.153 31.3926,354.82 33.5,307.5C 32.9085,286.331 32.2419,265.164 31.5,244C 31.5755,221.455 35.5755,199.622 43.5,178.5C 21.2868,160.609 17.4535,139.275 32,114.5C 43.8031,101.281 58.6364,94.948 76.5,95.5C 96.7713,63.0116 125.771,42.845 163.5,35C 219.626,25.1316 272.293,34.4649 321.5,63C 331.276,69.7765 340.109,77.6098 348,86.5C 349.009,88.0249 349.509,89.6916 349.5,91.5 Z"/></g>
<g><path style="opacity:1" fill="#5e5e5e" d="M 227.5,34.5 C 215.5,34.5 203.5,34.5 191.5,34.5C 191.5,34.1667 191.5,33.8333 191.5,33.5C 203.676,32.3278 215.676,32.6612 227.5,34.5 Z"/></g>
<g><path style="opacity:1" fill="#646464" d="M 191.5,33.5 C 191.5,33.8333 191.5,34.1667 191.5,34.5C 183.851,35.3546 176.184,36.0213 168.5,36.5C 175.927,34.7092 183.593,33.7092 191.5,33.5 Z"/></g>
<g><path style="opacity:1" fill="#121313" d="M 191.5,34.5 C 203.5,34.5 215.5,34.5 227.5,34.5C 232.852,35.5345 238.352,36.5345 244,37.5C 245.385,37.4857 246.551,37.1524 247.5,36.5C 249.306,37.0241 250.972,37.6908 252.5,38.5C 264.309,42.4573 276.309,46.124 288.5,49.5C 289.78,50.9313 291.447,51.5979 293.5,51.5C 294.78,52.9313 296.447,53.5979 298.5,53.5C 303.484,55.3255 308.151,57.6589 312.5,60.5C 313.659,62.2503 315.326,63.2503 317.5,63.5C 317.973,64.9063 318.973,65.573 320.5,65.5C 321.492,65.3284 322.158,65.6618 322.5,66.5C 323.035,68.4456 324.368,69.4456 326.5,69.5C 327.262,71.2624 328.596,72.2624 330.5,72.5C 334.785,77.4519 339.452,82.1186 344.5,86.5C 345.75,88.9324 347.25,91.2657 349,93.5C 349.464,92.9056 349.631,92.2389 349.5,91.5C 350.488,92.795 351.488,94.1283 352.5,95.5C 351.226,96.1894 351.226,97.0228 352.5,98C 353.667,98.1667 354.833,98.3333 356,98.5C 362.138,97.6575 368.305,97.3241 374.5,97.5C 378.534,97.5165 382.201,98.5165 385.5,100.5C 386.78,101.931 388.447,102.598 390.5,102.5C 392.819,102.992 394.819,103.992 396.5,105.5C 397.659,107.25 399.326,108.25 401.5,108.5C 401.973,109.906 402.973,110.573 404.5,110.5C 404.973,111.906 405.973,112.573 407.5,112.5C 408.167,112.5 408.5,112.833 408.5,113.5C 408.973,114.906 409.973,115.573 411.5,115.5C 413.167,116.5 414.5,117.833 415.5,119.5C 416.419,122.089 418.086,124.089 420.5,125.5C 420.427,127.027 421.094,128.027 422.5,128.5C 422.427,130.027 423.094,131.027 424.5,131.5C 424.402,133.553 425.069,135.22 426.5,136.5C 430.193,148.833 428.86,160.5 422.5,171.5C 420.167,173.167 418.167,175.167 416.5,177.5C 416.5,178.167 416.167,178.5 415.5,178.5C 413.973,178.427 412.973,179.094 412.5,180.5C 407.375,183.063 402.042,185.063 396.5,186.5C 396.263,187.791 396.596,188.791 397.5,189.5C 397.5,189.833 397.5,190.167 397.5,190.5C 397.41,193.152 398.076,195.485 399.5,197.5C 400.434,198.568 400.768,199.901 400.5,201.5C 400.198,205.79 400.864,209.79 402.5,213.5C 402.294,216.495 402.96,219.162 404.5,221.5C 406.035,227.713 407.035,234.047 407.5,240.5C 408.315,252.815 408.649,265.148 408.5,277.5C 408.5,298.666 404.333,318.999 396,338.5C 392.812,356.964 389.646,375.297 386.5,393.5C 385.011,397.236 384.344,401.236 384.5,405.5C 383.686,414.046 382.353,422.38 380.5,430.5C 379.011,434.236 378.344,438.236 378.5,442.5C 377.4,456.129 374.067,469.129 368.5,481.5C 366.262,486.071 363.262,490.071 359.5,493.5C 357.404,495.6 355.737,498.1 354.5,501C 346.037,505.379 337.371,509.379 328.5,513C 322.985,514.89 317.319,515.724 311.5,515.5C 313.292,514.691 315.292,514.191 317.5,514C 290.374,513.734 263.374,514.234 236.5,515.5C 219.843,516.877 203.009,517.877 186,518.5C 156.748,517.486 127.581,515.486 98.5,512.5C 94.0808,511.028 89.4141,510.362 84.5,510.5C 84.1667,510.5 83.8333,510.5 83.5,510.5C 81.7103,509.003 79.5437,508.336 77,508.5C 75.2933,508.508 73.7933,508.842 72.5,509.5C 69.885,508.709 67.2184,508.043 64.5,507.5C 62.4855,506.076 60.1522,505.41 57.5,505.5C 50.7524,503.961 45.0857,500.628 40.5,495.5C 38.2854,492.995 37.1187,489.995 37,486.5C 36.4003,477.09 35.5669,467.756 34.5,458.5C 34.8205,433.674 34.8205,408.674 34.5,383.5C 34.5,372.167 34.5,360.833 34.5,349.5C 35.3035,334.848 35.6368,320.181 35.5,305.5C 35.5,301.5 35.5,297.5 35.5,293.5C 35.5,271.833 35.5,250.167 35.5,228.5C 36.297,221.848 36.9636,215.181 37.5,208.5C 38.7682,206.095 39.4349,203.428 39.5,200.5C 41.9302,194.04 44.0969,187.373 46,180.5C 46.7796,178.613 46.6129,176.946 45.5,175.5C 45.0269,174.094 44.0269,173.427 42.5,173.5C 41.0892,171.086 39.0892,169.419 36.5,168.5C 35.5,168.167 34.8333,167.5 34.5,166.5C 34.573,164.973 33.9063,163.973 32.5,163.5C 31.3411,159.849 29.6744,156.515 27.5,153.5C 26.7243,146.863 26.391,140.196 26.5,133.5C 28.136,129.632 29.4693,125.632 30.5,121.5C 31.9063,121.027 32.573,120.027 32.5,118.5C 35.2195,116.781 37.2195,114.447 38.5,111.5C 41.4549,109.878 44.1215,107.878 46.5,105.5C 48.8185,105.008 50.8185,104.008 52.5,102.5C 56.1621,102.277 59.4954,101.277 62.5,99.5C 67.3054,98.5128 72.3054,98.1795 77.5,98.5C 80.4152,96.3494 82.0819,93.3494 82.5,89.5C 83.9063,89.0269 84.573,88.0269 84.5,86.5C 86.5869,85.4154 87.9202,83.7488 88.5,81.5C 95.193,75.1389 101.86,68.8056 108.5,62.5C 110.404,62.2624 111.738,61.2624 112.5,59.5C 114.404,59.2624 115.738,58.2624 116.5,56.5C 118.674,56.2503 120.341,55.2503 121.5,53.5C 121.842,52.6618 122.508,52.3284 123.5,52.5C 127.151,51.3411 130.485,49.6744 133.5,47.5C 136.491,47.8337 138.824,46.8337 140.5,44.5C 141.78,43.0687 143.447,42.4021 145.5,42.5C 151.703,41.2049 157.703,39.5382 163.5,37.5C 164.919,36.5489 166.585,36.2155 168.5,36.5C 176.184,36.0213 183.851,35.3546 191.5,34.5 Z"/></g>
<g><path style="opacity:1" fill="#7a7a7a" d="M 227.5,34.5 C 234.214,34.7303 240.88,35.397 247.5,36.5C 246.551,37.1524 245.385,37.4857 244,37.5C 238.352,36.5345 232.852,35.5345 227.5,34.5 Z"/></g>
<g><path style="opacity:0.835" fill="#777777" d="M 252.5,38.5 C 264.974,40.9467 276.974,44.6134 288.5,49.5C 276.309,46.124 264.309,42.4573 252.5,38.5 Z"/></g>
<g><path style="opacity:1" fill="#505455" d="M 221.5,40.5 C 207.816,40.3289 194.149,40.6622 180.5,41.5C 188.101,39.9454 195.934,39.2788 204,39.5C 210.01,39.5005 215.843,39.8338 221.5,40.5 Z"/></g>
<g><path style="opacity:1" fill="#666666" d="M 163.5,37.5 C 157.703,39.5382 151.703,41.2049 145.5,42.5C 151.073,39.647 157.073,37.9804 163.5,37.5 Z"/></g>
<g><path style="opacity:1" fill="#41cad4" d="M 221.5,40.5 C 252.798,43.7653 282.465,52.5986 310.5,67C 324.252,75.0881 335.752,85.5881 345,98.5C 347.848,101.356 351.181,103.356 355,104.5C 378.052,101.963 397.386,109.296 413,126.5C 426.363,142.774 425.53,158.274 410.5,173C 404.658,176.421 398.658,179.588 392.5,182.5C 391.345,185.446 391.179,188.446 392,191.5C 394.37,200.721 396.204,210.055 397.5,219.5C 397.193,230.839 396.693,242.172 396,253.5C 390.929,276.862 384.595,299.862 377,322.5C 370.605,334.287 363.938,345.953 357,357.5C 327.815,388.875 310.148,425.875 304,468.5C 303.455,478.692 302.622,488.859 301.5,499C 301.525,501.755 301.859,504.422 302.5,507C 296.984,507.173 291.651,507.673 286.5,508.5C 246.165,509.567 205.832,510.401 165.5,511C 130.554,509.961 95.8873,506.628 61.5,501C 56.9715,499.486 52.8048,497.319 49,494.5C 47.0797,491.661 45.4131,488.661 44,485.5C 42.086,466.876 40.7527,448.21 40,429.5C 40.1318,359.806 40.6318,290.14 41.5,220.5C 42.913,217.781 43.5797,214.781 43.5,211.5C 44.6991,204.371 46.3657,197.371 48.5,190.5C 50.8061,186.915 52.1394,182.915 52.5,178.5C 52.5569,177.391 52.8902,176.391 53.5,175.5C 55.7444,170.767 57.4111,165.767 58.5,160.5C 62.325,145.817 67.6584,131.817 74.5,118.5C 76.7757,116.669 78.609,114.336 80,111.5C 80.49,110.207 80.6567,108.873 80.5,107.5C 89.2408,87.9096 102.908,72.4096 121.5,61C 139.796,50.4013 159.463,43.9013 180.5,41.5C 194.149,40.6622 207.816,40.3289 221.5,40.5 Z"/></g>
<g><path style="opacity:1" fill="#474747" d="M 140.5,44.5 C 138.824,46.8337 136.491,47.8337 133.5,47.5C 135.426,45.7073 137.759,44.7073 140.5,44.5 Z"/></g>
<g><path style="opacity:1" fill="#797979" d="M 288.5,49.5 C 290.553,49.4021 292.22,50.0687 293.5,51.5C 291.447,51.5979 289.78,50.9313 288.5,49.5 Z"/></g>
<g><path style="opacity:1" fill="#6c6c6c" d="M 133.5,47.5 C 130.485,49.6744 127.151,51.3411 123.5,52.5C 126.247,49.7933 129.58,48.1266 133.5,47.5 Z"/></g>
<g><path style="opacity:1" fill="#7d7d7d" d="M 293.5,51.5 C 295.553,51.4021 297.22,52.0687 298.5,53.5C 296.447,53.5979 294.78,52.9313 293.5,51.5 Z"/></g>
<g><path style="opacity:1" fill="#717171" d="M 121.5,53.5 C 120.341,55.2503 118.674,56.2503 116.5,56.5C 117.659,54.7497 119.326,53.7497 121.5,53.5 Z"/></g>
<g><path style="opacity:1" fill="#6e6e6e" d="M 116.5,56.5 C 115.738,58.2624 114.404,59.2624 112.5,59.5C 113.262,57.7376 114.596,56.7376 116.5,56.5 Z"/></g>
<g><path style="opacity:1" fill="#696969" d="M 112.5,59.5 C 111.738,61.2624 110.404,62.2624 108.5,62.5C 109.262,60.7376 110.596,59.7376 112.5,59.5 Z"/></g>
<g><path style="opacity:1" fill="#787878" d="M 312.5,60.5 C 314.674,60.7497 316.341,61.7497 317.5,63.5C 315.326,63.2503 313.659,62.2503 312.5,60.5 Z"/></g>
<g><path style="opacity:1" fill="#7f7f7f" d="M 317.5,63.5 C 319.027,63.427 320.027,64.0937 320.5,65.5C 318.973,65.573 317.973,64.9063 317.5,63.5 Z"/></g>
<g><path style="opacity:1" fill="#616161" d="M 322.5,66.5 C 324.23,67.0256 325.564,68.0256 326.5,69.5C 324.368,69.4456 323.035,68.4456 322.5,66.5 Z"/></g>
<g><path style="opacity:0.408" fill="#797979" d="M 326.5,69.5 C 328.404,69.7376 329.738,70.7376 330.5,72.5C 328.596,72.2624 327.262,71.2624 326.5,69.5 Z"/></g>
<g><path style="opacity:1" fill="#6e6e6e" d="M 108.5,62.5 C 101.86,68.8056 95.193,75.1389 88.5,81.5C 93.8773,73.7888 100.544,67.4555 108.5,62.5 Z"/></g>
<g><path style="opacity:0.337" fill="#757575" d="M 330.5,72.5 C 336.188,76.1879 340.855,80.8546 344.5,86.5C 339.452,82.1186 334.785,77.4519 330.5,72.5 Z"/></g>
<g><path style="opacity:1" fill="#6e6e6e" d="M 88.5,81.5 C 87.9202,83.7488 86.5869,85.4154 84.5,86.5C 85.0798,84.2512 86.4131,82.5846 88.5,81.5 Z"/></g>
<g><path style="opacity:1" fill="#777777" d="M 84.5,86.5 C 84.573,88.0269 83.9063,89.0269 82.5,89.5C 82.427,87.9731 83.0937,86.9731 84.5,86.5 Z"/></g>
<g><path style="opacity:1" fill="#686868" d="M 344.5,86.5 C 346.527,87.8606 348.194,89.5273 349.5,91.5C 349.631,92.2389 349.464,92.9056 349,93.5C 347.25,91.2657 345.75,88.9324 344.5,86.5 Z"/></g>
<g><path style="opacity:0.055" fill="#000000" d="M 368.5,481.5 C 374.067,469.129 377.4,456.129 378.5,442.5C 379.795,438.733 380.461,434.733 380.5,430.5C 382.353,422.38 383.686,414.046 384.5,405.5C 385.795,401.733 386.461,397.733 386.5,393.5C 389.646,375.297 392.812,356.964 396,338.5C 404.333,318.999 408.5,298.666 408.5,277.5C 409.166,272.678 409.499,267.678 409.5,262.5C 409.679,254.938 409.012,247.605 407.5,240.5C 407.035,234.047 406.035,227.713 404.5,221.5C 404.435,218.572 403.768,215.905 402.5,213.5C 402.283,209.295 401.617,205.295 400.5,201.5C 400.768,199.901 400.434,198.568 399.5,197.5C 399.59,194.848 398.924,192.515 397.5,190.5C 397.5,190.167 397.5,189.833 397.5,189.5C 402.56,186.795 407.56,183.795 412.5,180.5C 414.027,180.573 415.027,179.906 415.5,178.5C 416.167,178.5 416.5,178.167 416.5,177.5C 419.5,176.5 421.5,174.5 422.5,171.5C 425.051,169.422 426.884,166.756 428,163.5C 430.914,154.253 430.414,145.253 426.5,136.5C 426.598,134.447 425.931,132.78 424.5,131.5C 424.573,129.973 423.906,128.973 422.5,128.5C 422.573,126.973 421.906,125.973 420.5,125.5C 419.581,122.911 417.914,120.911 415.5,119.5C 414.5,117.833 413.167,116.5 411.5,115.5C 411.027,114.094 410.027,113.427 408.5,113.5C 408.5,112.833 408.167,112.5 407.5,112.5C 407.027,111.094 406.027,110.427 404.5,110.5C 404.027,109.094 403.027,108.427 401.5,108.5C 400.341,106.75 398.674,105.75 396.5,105.5C 394.819,103.992 392.819,102.992 390.5,102.5C 389.22,101.069 387.553,100.402 385.5,100.5C 382.201,98.5165 378.534,97.5165 374.5,97.5C 367.481,96.714 360.481,96.3806 353.5,96.5C 365.405,93.4456 377.072,94.2789 388.5,99C 403.629,104.806 415.796,114.306 425,127.5C 435.318,144.594 434.318,160.927 422,176.5C 415.019,182.07 407.519,186.737 399.5,190.5C 404.845,212.079 408.845,233.912 411.5,256C 410.892,269.969 410.058,284.136 409,298.5C 406.169,312.83 402.169,326.83 397,340.5C 390.187,382.861 383.187,425.194 376,467.5C 374.249,472.674 371.749,477.341 368.5,481.5 Z"/></g>
<g><path style="opacity:1" fill="#797979" d="M 352.5,95.5 C 353.167,95.5 353.5,95.8333 353.5,96.5C 360.481,96.3806 367.481,96.714 374.5,97.5C 368.305,97.3241 362.138,97.6575 356,98.5C 354.833,98.3333 353.667,98.1667 352.5,98C 351.226,97.0228 351.226,96.1894 352.5,95.5 Z"/></g>
<g><path style="opacity:1" fill="#404040" d="M 82.5,89.5 C 82.0819,93.3494 80.4152,96.3494 77.5,98.5C 78.4097,95.0078 80.0764,92.0078 82.5,89.5 Z"/></g>
<g><path style="opacity:1" fill="#535353" d="M 62.5,99.5 C 59.4954,101.277 56.1621,102.277 52.5,102.5C 55.381,100.32 58.7144,99.32 62.5,99.5 Z"/></g>
<g><path style="opacity:1" fill="#7d7d7d" d="M 385.5,100.5 C 387.553,100.402 389.22,101.069 390.5,102.5C 388.447,102.598 386.78,101.931 385.5,100.5 Z"/></g>
<g><path style="opacity:1" fill="#717171" d="M 52.5,102.5 C 50.8185,104.008 48.8185,105.008 46.5,105.5C 47.911,103.461 49.911,102.461 52.5,102.5 Z"/></g>
<g><path style="opacity:1" fill="#3fc5ce" d="M 59.5,105.5 C 64.5,105.5 69.5,105.5 74.5,105.5C 70.9088,113.02 67.5755,120.686 64.5,128.5C 56.2951,124.957 49.7951,126.957 45,134.5C 43.5615,139.762 43.2282,145.096 44,150.5C 46.3394,154.328 48.8394,157.995 51.5,161.5C 51.2265,164.65 50.0598,167.316 48,169.5C 35.4037,161.299 30.0704,149.632 32,134.5C 36.2561,120.079 45.4228,110.413 59.5,105.5 Z"/></g>
<g><path style="opacity:1" fill="#7a7a7a" d="M 396.5,105.5 C 398.674,105.75 400.341,106.75 401.5,108.5C 399.326,108.25 397.659,107.25 396.5,105.5 Z"/></g>
<g><path style="opacity:1" fill="#616161" d="M 46.5,105.5 C 44.1215,107.878 41.4549,109.878 38.5,111.5C 40.3129,108.353 42.9796,106.353 46.5,105.5 Z"/></g>
<g><path style="opacity:0.718" fill="#858585" d="M 401.5,108.5 C 403.027,108.427 404.027,109.094 404.5,110.5C 402.973,110.573 401.973,109.906 401.5,108.5 Z"/></g>
<g><path style="opacity:1" fill="#111313" d="M 395.5,121.5 C 395.5,123.167 395.5,124.833 395.5,126.5C 393.076,126.192 390.743,126.526 388.5,127.5C 387.034,129.657 385.2,129.99 383,128.5C 382.51,127.207 382.343,125.873 382.5,124.5C 379.962,124.493 377.462,124.159 375,123.5C 372.816,123.885 370.982,124.885 369.5,126.5C 368.833,126.333 368.167,126.167 367.5,126C 366.833,124.667 366.167,123.333 365.5,122C 361.339,121.835 357.506,120.668 354,118.5C 353.316,117.216 353.483,116.049 354.5,115C 357.192,114.57 359.859,114.737 362.5,115.5C 363.919,116.451 365.585,116.784 367.5,116.5C 367.5,114.167 367.5,111.833 367.5,109.5C 369.489,108.113 371.322,108.447 373,110.5C 373.497,112.81 373.663,115.143 373.5,117.5C 376.807,118.051 380.14,118.384 383.5,118.5C 383.338,116.473 383.505,114.473 384,112.5C 385.938,111.14 387.604,111.473 389,113.5C 389.662,115.813 390.162,118.146 390.5,120.5C 392.292,120.366 393.958,120.699 395.5,121.5 Z"/></g>
<g><path style="opacity:0.776" fill="#878787" d="M 404.5,110.5 C 406.027,110.427 407.027,111.094 407.5,112.5C 405.973,112.573 404.973,111.906 404.5,110.5 Z"/></g>
<g><path style="opacity:0.686" fill="#878787" d="M 408.5,113.5 C 410.027,113.427 411.027,114.094 411.5,115.5C 409.973,115.573 408.973,114.906 408.5,113.5 Z"/></g>
<g><path style="opacity:1" fill="#5a5a5a" d="M 38.5,111.5 C 37.2195,114.447 35.2195,116.781 32.5,118.5C 33.8103,115.527 35.8103,113.193 38.5,111.5 Z"/></g>
<g><path style="opacity:1" fill="#6ba9ad" d="M 80.5,107.5 C 80.6567,108.873 80.49,110.207 80,111.5C 78.609,114.336 76.7757,116.669 74.5,118.5C 75.7417,114.345 77.7417,110.678 80.5,107.5 Z"/></g>
<g><path style="opacity:1" fill="#535454" d="M 271.5,113.5 C 301.58,111.437 322.747,124.103 335,151.5C 341.849,188.299 327.349,212.132 291.5,223C 258.759,226.241 236.926,212.408 226,181.5C 221.712,159.296 227.879,140.63 244.5,125.5C 252.68,119.575 261.68,115.575 271.5,113.5 Z"/></g>
<g><path style="opacity:1" fill="#494a4b" d="M 367.5,109.5 C 367.5,111.833 367.5,114.167 367.5,116.5C 365.585,116.784 363.919,116.451 362.5,115.5C 363.833,115.5 365.167,115.5 366.5,115.5C 366.205,113.265 366.539,111.265 367.5,109.5 Z"/></g>
<g><path style="opacity:1" fill="#7c7c7c" d="M 32.5,118.5 C 32.573,120.027 31.9063,121.027 30.5,121.5C 30.427,119.973 31.0937,118.973 32.5,118.5 Z"/></g>
<g><path style="opacity:1" fill="#87a4ab" d="M 198.5,183.5 C 192.642,183.178 186.975,183.511 181.5,184.5C 177.46,184.591 173.793,185.758 170.5,188C 166.907,191.422 163.574,194.922 160.5,198.5C 156.5,200.5 153.5,203.5 151.5,207.5C 151.443,208.609 151.11,209.609 150.5,210.5C 148.953,212.807 148.287,215.473 148.5,218.5C 148.667,220.5 148.833,222.5 149,224.5C 149.383,225.056 149.883,225.389 150.5,225.5C 150.833,226.833 151.167,228.167 151.5,229.5C 144.639,229.306 137.806,229.639 131,230.5C 82.9346,227.763 61.6013,202.43 67,154.5C 74.4682,122.048 91.9682,96.5476 119.5,78C 138.047,69.8163 156.714,69.483 175.5,77C 186.174,82.6752 193.674,91.1752 198,102.5C 203.368,117.042 205.368,132.042 204,147.5C 202.275,159.524 200.442,171.524 198.5,183.5 Z"/></g>
<g><path style="opacity:1" fill="#535354" d="M 125.5,88.5 C 158.84,86.894 180.34,101.894 190,133.5C 192.518,166.981 177.685,188.481 145.5,198C 119.249,201.915 99.0827,192.748 85,170.5C 70.9054,139.797 77.7388,114.964 105.5,96C 112.165,93.1716 118.832,90.6716 125.5,88.5 Z"/></g>
<g><path style="opacity:1" fill="#ecb6b9" d="M 173.5,117.5 C 175.063,118.945 176.396,120.611 177.5,122.5C 170.017,126.484 164.35,132.318 160.5,140C 157.607,141.149 154.607,141.649 151.5,141.5C 151.167,141.5 150.833,141.5 150.5,141.5C 150.029,139.421 149.363,137.421 148.5,135.5C 151.187,135.664 153.854,135.497 156.5,135C 159.037,132.094 161.204,128.927 163,125.5C 166.376,122.617 169.876,119.951 173.5,117.5 Z"/></g>
<g><path style="opacity:1" fill="#fce3e4" d="M 96.5,114.5 C 101.476,115.303 104.809,118.136 106.5,123C 109.206,124.908 112.206,125.741 115.5,125.5C 115.5,129.167 115.5,132.833 115.5,136.5C 115.5,136.833 115.5,137.167 115.5,137.5C 113.896,138.287 113.229,139.62 113.5,141.5C 110.309,140.908 107.309,139.741 104.5,138C 98.7963,137.313 93.1296,137.479 87.5,138.5C 87.5,137.167 87.5,135.833 87.5,134.5C 88.8758,127.083 91.8758,120.417 96.5,114.5 Z"/></g>
<g><path style="opacity:1" fill="#e9b4b7" d="M 102.5,108.5 C 106.046,111.35 109.046,114.85 111.5,119C 114.659,119.011 117.493,119.845 120,121.5C 120.183,124.365 120.683,127.031 121.5,129.5C 119.471,131.858 117.471,134.192 115.5,136.5C 115.5,132.833 115.5,129.167 115.5,125.5C 112.206,125.741 109.206,124.908 106.5,123C 104.809,118.136 101.476,115.303 96.5,114.5C 98.1667,112.167 100.167,110.167 102.5,108.5 Z"/></g>
<g><path style="opacity:1" fill="#fce4e5" d="M 148.5,99.5 C 159.515,101.835 167.849,107.835 173.5,117.5C 169.876,119.951 166.376,122.617 163,125.5C 161.204,128.927 159.037,132.094 156.5,135C 153.854,135.497 151.187,135.664 148.5,135.5C 147.883,135.389 147.383,135.056 147,134.5C 146.768,135.737 146.268,136.737 145.5,137.5C 145.739,135.533 145.406,133.699 144.5,132C 142.19,131.503 139.857,131.337 137.5,131.5C 137.842,130.662 138.508,130.328 139.5,130.5C 140.376,130.631 141.043,130.298 141.5,129.5C 141.013,128.554 140.68,127.554 140.5,126.5C 143.33,117.506 145.997,108.506 148.5,99.5 Z"/></g>
<g><path style="opacity:1" fill="#eab5b8" d="M 143.5,98.5 C 145.292,98.366 146.958,98.6993 148.5,99.5C 145.997,108.506 143.33,117.506 140.5,126.5C 140.68,127.554 141.013,128.554 141.5,129.5C 141.043,130.298 140.376,130.631 139.5,130.5C 139.5,129.833 139.5,129.167 139.5,128.5C 138.448,126.744 136.781,126.077 134.5,126.5C 137.207,116.984 140.207,107.651 143.5,98.5 Z"/></g>
<g><path style="opacity:1" fill="#fbe3e4" d="M 143.5,98.5 C 140.207,107.651 137.207,116.984 134.5,126.5C 131.941,126.198 129.607,126.532 127.5,127.5C 125.5,128.167 123.5,128.833 121.5,129.5C 120.683,127.031 120.183,124.365 120,121.5C 117.493,119.845 114.659,119.011 111.5,119C 109.046,114.85 106.046,111.35 102.5,108.5C 114.583,98.3955 128.25,95.0621 143.5,98.5 Z"/></g>
<g><path style="opacity:1" fill="#6b6b6b" d="M 415.5,119.5 C 417.914,120.911 419.581,122.911 420.5,125.5C 418.086,124.089 416.419,122.089 415.5,119.5 Z"/></g>
<g><path style="opacity:1" fill="#88a5ac" d="M 232.5,221.5 C 227.538,211.247 222.872,200.914 218.5,190.5C 212.458,164.452 219.791,143.285 240.5,127C 241.745,126.209 243.078,125.709 244.5,125.5C 227.879,140.63 221.712,159.296 226,181.5C 236.926,212.408 258.759,226.241 291.5,223C 327.349,212.132 341.849,188.299 335,151.5C 322.747,124.103 301.58,111.437 271.5,113.5C 282.514,110.543 293.514,111.043 304.5,115C 323.864,125.035 337.698,140.202 346,160.5C 352.874,182.292 355.541,204.625 354,227.5C 349.889,244.592 340.722,258.092 326.5,268C 323.167,269.333 319.833,270.667 316.5,272C 307.5,272.667 298.5,272.667 289.5,272C 282.683,268.426 275.683,265.093 268.5,262C 261.833,257 255.167,252 248.5,247C 241.69,239.371 236.357,230.871 232.5,221.5 Z"/></g>
<g><path style="opacity:1" fill="#484d4d" d="M 395.5,121.5 C 398.167,123.167 398.167,124.833 395.5,126.5C 395.5,124.833 395.5,123.167 395.5,121.5 Z"/></g>
<g><path style="opacity:0.669" fill="#696969" d="M 30.5,121.5 C 29.4693,125.632 28.136,129.632 26.5,133.5C 26.6187,128.996 27.9521,124.996 30.5,121.5 Z"/></g>
<g><path style="opacity:1" fill="#fbe4e5" d="M 177.5,122.5 C 181.17,131.408 182.503,140.742 181.5,150.5C 174.721,154.395 168.055,158.561 161.5,163C 155.271,163.778 149.271,163.111 143.5,161C 144.381,160.292 145.047,159.458 145.5,158.5C 146.248,156.668 147.248,155.001 148.5,153.5C 149.966,152.653 150.8,151.32 151,149.5C 151.497,146.854 151.664,144.187 151.5,141.5C 154.607,141.649 157.607,141.149 160.5,140C 164.35,132.318 170.017,126.484 177.5,122.5 Z"/></g>
<g><path style="opacity:1" fill="#9e8183" d="M 127.5,127.5 C 129.607,126.532 131.941,126.198 134.5,126.5C 136.781,126.077 138.448,126.744 139.5,128.5C 135.566,127.64 131.566,127.307 127.5,127.5 Z"/></g>
<g><path style="opacity:1" fill="#797979" d="M 420.5,125.5 C 421.906,125.973 422.573,126.973 422.5,128.5C 421.094,128.027 420.427,127.027 420.5,125.5 Z"/></g>
<g><path style="opacity:1" fill="#0a0909" d="M 127.5,127.5 C 131.566,127.307 135.566,127.64 139.5,128.5C 139.5,129.167 139.5,129.833 139.5,130.5C 138.508,130.328 137.842,130.662 137.5,131.5C 136.007,132.312 135.34,133.645 135.5,135.5C 135.52,136.726 135.853,137.726 136.5,138.5C 138.766,140.763 141.433,141.096 144.5,139.5C 145.298,139.043 145.631,138.376 145.5,137.5C 146.268,136.737 146.768,135.737 147,134.5C 147.383,135.056 147.883,135.389 148.5,135.5C 149.363,137.421 150.029,139.421 150.5,141.5C 150.668,145.658 150.002,149.658 148.5,153.5C 147.248,155.001 146.248,156.668 145.5,158.5C 143.517,159.471 141.517,160.471 139.5,161.5C 135.232,162.373 130.898,162.706 126.5,162.5C 122.632,160.971 119.299,158.637 116.5,155.5C 115.5,152.833 114.5,150.167 113.5,147.5C 113.547,144.031 114.213,140.698 115.5,137.5C 115.5,137.167 115.5,136.833 115.5,136.5C 117.471,134.192 119.471,131.858 121.5,129.5C 123.5,128.833 125.5,128.167 127.5,127.5 Z"/></g>
<g><path style="opacity:1" fill="#fde4e5" d="M 314.5,136.5 C 311.647,142.687 307.647,148.021 302.5,152.5C 301.395,151.4 300.062,150.733 298.5,150.5C 297.4,149.442 296.066,148.608 294.5,148C 290.848,147.501 287.182,147.335 283.5,147.5C 279.409,143.129 276.909,137.796 276,131.5C 274.877,128.751 273.377,126.251 271.5,124C 272.056,123.617 272.389,123.117 272.5,122.5C 289.059,119.797 303.059,124.464 314.5,136.5 Z"/></g>
<g><path style="opacity:1" fill="#838383" d="M 422.5,128.5 C 423.906,128.973 424.573,129.973 424.5,131.5C 423.094,131.027 422.427,130.027 422.5,128.5 Z"/></g>
<g><path style="opacity:1" fill="#f9f9f9" d="M 137.5,131.5 C 139.857,131.337 142.19,131.503 144.5,132C 145.406,133.699 145.739,135.533 145.5,137.5C 145.631,138.376 145.298,139.043 144.5,139.5C 141.433,141.096 138.766,140.763 136.5,138.5C 136.448,136.097 136.781,133.764 137.5,131.5 Z"/></g>
<g><path style="opacity:1" fill="#fde3e4" d="M 263.5,125.5 C 266.091,126.254 267.924,127.921 269,130.5C 270.67,135.511 272.337,140.511 274,145.5C 274.949,147.093 276.115,148.426 277.5,149.5C 273.788,152.211 270.788,155.544 268.5,159.5C 260.985,152.656 252.652,146.989 243.5,142.5C 242.702,142.043 242.369,141.376 242.5,140.5C 248.124,133.538 255.124,128.538 263.5,125.5 Z"/></g>
<g><path style="opacity:0.533" fill="#818181" d="M 424.5,131.5 C 425.931,132.78 426.598,134.447 426.5,136.5C 425.069,135.22 424.402,133.553 424.5,131.5 Z"/></g>
<g><path style="opacity:1" fill="#edb8ba" d="M 272.5,122.5 C 272.389,123.117 272.056,123.617 271.5,124C 273.377,126.251 274.877,128.751 276,131.5C 276.909,137.796 279.409,143.129 283.5,147.5C 281.698,148.458 279.698,149.125 277.5,149.5C 276.115,148.426 274.949,147.093 274,145.5C 272.337,140.511 270.67,135.511 269,130.5C 267.924,127.921 266.091,126.254 263.5,125.5C 266.189,123.883 269.189,122.883 272.5,122.5 Z"/></g>
<g><path style="opacity:1" fill="#080808" d="M 375.5,163.5 C 375.741,161.102 375.074,159.102 373.5,157.5C 371.169,150.846 368.835,144.179 366.5,137.5C 366.709,136.006 367.376,134.839 368.5,134C 378.752,131.965 388.086,133.965 396.5,140C 406.292,150.442 405.625,160.109 394.5,169C 390.36,172.242 385.694,173.242 380.5,172C 379.037,169.04 377.371,166.206 375.5,163.5 Z"/></g>
<g><path style="opacity:1" fill="#aaaaaa" d="M 137.5,131.5 C 136.781,133.764 136.448,136.097 136.5,138.5C 135.853,137.726 135.52,136.726 135.5,135.5C 135.34,133.645 136.007,132.312 137.5,131.5 Z"/></g>
<g><path style="opacity:1" fill="#e7b4b6" d="M 87.5,134.5 C 87.5,135.833 87.5,137.167 87.5,138.5C 93.1296,137.479 98.7963,137.313 104.5,138C 107.309,139.741 110.309,140.908 113.5,141.5C 113.229,139.62 113.896,138.287 115.5,137.5C 114.213,140.698 113.547,144.031 113.5,147.5C 108.109,145.378 102.443,144.045 96.5,143.5C 92.9706,143.401 89.6373,144.067 86.5,145.5C 86.185,141.629 86.5184,137.962 87.5,134.5 Z"/></g>
<g><path style="opacity:1" fill="#ecb7b9" d="M 314.5,136.5 C 316.89,137.891 318.557,139.891 319.5,142.5C 315.403,147.687 311.07,152.687 306.5,157.5C 305.833,156.833 305.167,156.167 304.5,155.5C 303.833,154.5 303.167,153.5 302.5,152.5C 307.647,148.021 311.647,142.687 314.5,136.5 Z"/></g>
<g><path style="opacity:1" fill="#7d7d7d" d="M 26.5,133.5 C 26.391,140.196 26.7243,146.863 27.5,153.5C 25.9524,149.966 25.2857,146.133 25.5,142C 25.5022,138.979 25.8356,136.146 26.5,133.5 Z"/></g>
<g><path style="opacity:1" fill="#f8e1e2" d="M 113.5,147.5 C 114.5,150.167 115.5,152.833 116.5,155.5C 116.859,157.371 117.859,158.871 119.5,160C 116.833,160.667 114.167,160.667 111.5,160C 105.929,157.881 100.596,155.215 95.5,152C 92.6074,150.851 89.6074,150.351 86.5,150.5C 86.5,148.833 86.5,147.167 86.5,145.5C 89.6373,144.067 92.9706,143.401 96.5,143.5C 102.443,144.045 108.109,145.378 113.5,147.5 Z"/></g>
<g><path style="opacity:1" fill="#928484" d="M 150.5,141.5 C 150.833,141.5 151.167,141.5 151.5,141.5C 151.664,144.187 151.497,146.854 151,149.5C 150.8,151.32 149.966,152.653 148.5,153.5C 150.002,149.658 150.668,145.658 150.5,141.5 Z"/></g>
<g><path style="opacity:1" fill="#edb8ba" d="M 242.5,140.5 C 242.369,141.376 242.702,142.043 243.5,142.5C 252.652,146.989 260.985,152.656 268.5,159.5C 268.405,161.786 267.738,163.786 266.5,165.5C 260.043,160.883 253.71,156.049 247.5,151C 244.516,149.729 241.516,148.562 238.5,147.5C 239.079,144.669 240.412,142.336 242.5,140.5 Z"/></g>
<g><path style="opacity:1" fill="#fce2e3" d="M 319.5,142.5 C 324.065,147.158 326.732,152.825 327.5,159.5C 327.5,162.5 327.5,165.5 327.5,168.5C 321.427,170.223 315.761,172.89 310.5,176.5C 311.308,169.663 309.975,163.329 306.5,157.5C 311.07,152.687 315.403,147.687 319.5,142.5 Z"/></g>
<g><path style="opacity:1" fill="#806053" d="M 283.5,147.5 C 287.182,147.335 290.848,147.501 294.5,148C 296.066,148.608 297.4,149.442 298.5,150.5C 296.833,151.167 295.167,151.833 293.5,152.5C 291.806,153.527 290.473,154.861 289.5,156.5C 288.082,154.692 286.082,154.025 283.5,154.5C 279.267,156.062 276.933,159.062 276.5,163.5C 275.778,163.918 275.278,164.584 275,165.5C 273.491,172.794 274.824,179.46 279,185.5C 280.777,187.79 282.944,189.457 285.5,190.5C 295.769,193.189 301.435,189.189 302.5,178.5C 302.666,174.486 302.499,170.486 302,166.5C 301.329,165.748 300.496,165.414 299.5,165.5C 300.458,164.038 301.624,162.705 303,161.5C 303.494,159.866 303.66,158.199 303.5,156.5C 303.5,155.833 303.833,155.5 304.5,155.5C 305.167,156.167 305.833,156.833 306.5,157.5C 309.975,163.329 311.308,169.663 310.5,176.5C 310.326,178.861 309.993,181.194 309.5,183.5C 306.37,190.626 301.037,195.293 293.5,197.5C 291.5,197.5 289.5,197.5 287.5,197.5C 279.444,196.479 273.444,192.479 269.5,185.5C 268.545,183.254 267.878,180.921 267.5,178.5C 266.564,174.265 266.231,169.931 266.5,165.5C 267.738,163.786 268.405,161.786 268.5,159.5C 270.788,155.544 273.788,152.211 277.5,149.5C 279.698,149.125 281.698,148.458 283.5,147.5 Z"/></g>
<g><path style="opacity:1" fill="#fde4e5" d="M 238.5,147.5 C 241.516,148.562 244.516,149.729 247.5,151C 253.71,156.049 260.043,160.883 266.5,165.5C 266.231,169.931 266.564,174.265 267.5,178.5C 265.112,179.219 263.612,180.885 263,183.5C 261.59,184.787 260.09,185.954 258.5,187C 250.813,186.724 243.147,185.891 235.5,184.5C 230.891,171.605 231.891,159.272 238.5,147.5 Z"/></g>
<g><path style="opacity:1" fill="#77888e" d="M 86.5,150.5 C 89.6074,150.351 92.6074,150.851 95.5,152C 100.596,155.215 105.929,157.881 111.5,160C 114.167,160.667 116.833,160.667 119.5,160C 117.859,158.871 116.859,157.371 116.5,155.5C 119.299,158.637 122.632,160.971 126.5,162.5C 130.311,163.645 134.311,163.812 138.5,163C 139.056,162.617 139.389,162.117 139.5,161.5C 141.517,160.471 143.517,159.471 145.5,158.5C 145.047,159.458 144.381,160.292 143.5,161C 149.271,163.111 155.271,163.778 161.5,163C 168.055,158.561 174.721,154.395 181.5,150.5C 181.527,157.055 179.694,163.055 176,168.5C 156.464,192.583 132.964,197.083 105.5,182C 100.633,177.468 96.1329,172.634 92,167.5C 88.9898,162.162 87.1564,156.496 86.5,150.5 Z"/></g>
<g><path style="opacity:1" fill="#f4f3f3" d="M 293.5,152.5 C 295.527,152.338 297.527,152.505 299.5,153C 300.705,154.376 302.038,155.542 303.5,156.5C 303.66,158.199 303.494,159.866 303,161.5C 301.624,162.705 300.458,164.038 299.5,165.5C 292.38,166.714 289.047,163.714 289.5,156.5C 290.473,154.861 291.806,153.527 293.5,152.5 Z"/></g>
<g><path style="opacity:1" fill="#a99289" d="M 298.5,150.5 C 300.062,150.733 301.395,151.4 302.5,152.5C 303.167,153.5 303.833,154.5 304.5,155.5C 303.833,155.5 303.5,155.833 303.5,156.5C 302.038,155.542 300.705,154.376 299.5,153C 297.527,152.505 295.527,152.338 293.5,152.5C 295.167,151.833 296.833,151.167 298.5,150.5 Z"/></g>
<g><path style="opacity:1" fill="#060403" d="M 283.5,154.5 C 286.082,154.025 288.082,154.692 289.5,156.5C 289.047,163.714 292.38,166.714 299.5,165.5C 300.496,165.414 301.329,165.748 302,166.5C 302.499,170.486 302.666,174.486 302.5,178.5C 300.435,183.401 297.102,187.234 292.5,190C 290.19,190.497 287.857,190.663 285.5,190.5C 282.944,189.457 280.777,187.79 279,185.5C 274.824,179.46 273.491,172.794 275,165.5C 275.278,164.584 275.778,163.918 276.5,163.5C 278.392,160.26 280.726,157.26 283.5,154.5 Z"/></g>
<g><path style="opacity:1" fill="#7a7a7a" d="M 426.5,136.5 C 430.414,145.253 430.914,154.253 428,163.5C 426.884,166.756 425.051,169.422 422.5,171.5C 428.86,160.5 430.193,148.833 426.5,136.5 Z"/></g>
<g><path style="opacity:1" fill="#717171" d="M 27.5,153.5 C 29.6744,156.515 31.3411,159.849 32.5,163.5C 29.7933,160.753 28.1266,157.42 27.5,153.5 Z"/></g>
<g><path style="opacity:1" fill="#382922" d="M 283.5,154.5 C 280.726,157.26 278.392,160.26 276.5,163.5C 276.933,159.062 279.267,156.062 283.5,154.5 Z"/></g>
<g><path style="opacity:1" fill="#6d999c" d="M 373.5,157.5 C 375.074,159.102 375.741,161.102 375.5,163.5C 373.926,161.898 373.259,159.898 373.5,157.5 Z"/></g>
<g><path style="opacity:1" fill="#444040" d="M 139.5,161.5 C 139.389,162.117 139.056,162.617 138.5,163C 134.311,163.812 130.311,163.645 126.5,162.5C 130.898,162.706 135.232,162.373 139.5,161.5 Z"/></g>
<g><path style="opacity:1" fill="#698a8c" d="M 58.5,160.5 C 57.4111,165.767 55.7444,170.767 53.5,175.5C 54.1938,170.085 55.8605,165.085 58.5,160.5 Z"/></g>
<g><path style="opacity:0.808" fill="#8a8a8a" d="M 32.5,163.5 C 33.9063,163.973 34.573,164.973 34.5,166.5C 33.0937,166.027 32.427,165.027 32.5,163.5 Z"/></g>
<g><path style="opacity:1" fill="#696969" d="M 36.5,168.5 C 39.0892,169.419 41.0892,171.086 42.5,173.5C 39.9108,172.581 37.9108,170.914 36.5,168.5 Z"/></g>
<g><path style="opacity:1" fill="#e6b4b6" d="M 327.5,159.5 C 328.487,164.305 328.821,169.305 328.5,174.5C 321.753,176.708 315.419,179.708 309.5,183.5C 309.993,181.194 310.326,178.861 310.5,176.5C 315.761,172.89 321.427,170.223 327.5,168.5C 327.5,165.5 327.5,162.5 327.5,159.5 Z"/></g>
<g><path style="opacity:1" fill="#727272" d="M 42.5,173.5 C 44.0269,173.427 45.0269,174.094 45.5,175.5C 43.9731,175.573 42.9731,174.906 42.5,173.5 Z"/></g>
<g><path style="opacity:0.565" fill="#898989" d="M 422.5,171.5 C 421.5,174.5 419.5,176.5 416.5,177.5C 418.167,175.167 420.167,173.167 422.5,171.5 Z"/></g>
<g><path style="opacity:1" fill="#fce3e4" d="M 328.5,174.5 C 325.364,192.459 315.364,204.792 298.5,211.5C 297.08,206.713 295.414,202.046 293.5,197.5C 301.037,195.293 306.37,190.626 309.5,183.5C 315.419,179.708 321.753,176.708 328.5,174.5 Z"/></g>
<g><path style="opacity:0.718" fill="#8e8e8e" d="M 415.5,178.5 C 415.027,179.906 414.027,180.573 412.5,180.5C 412.973,179.094 413.973,178.427 415.5,178.5 Z"/></g>
<g><path style="opacity:1" fill="#627778" d="M 52.5,178.5 C 52.1394,182.915 50.8061,186.915 48.5,190.5C 49.2613,186.216 50.5947,182.216 52.5,178.5 Z"/></g>
<g><path style="opacity:1" fill="#757575" d="M 412.5,180.5 C 407.56,183.795 402.56,186.795 397.5,189.5C 396.596,188.791 396.263,187.791 396.5,186.5C 402.042,185.063 407.375,183.063 412.5,180.5 Z"/></g>
<g><path style="opacity:1" fill="#303e40" d="M 181.5,184.5 C 186.975,183.511 192.642,183.178 198.5,183.5C 198.833,184.167 199.167,184.833 199.5,185.5C 193.529,184.759 187.529,184.425 181.5,184.5 Z"/></g>
<g><path style="opacity:1" fill="#0c0d0d" d="M 181.5,184.5 C 187.529,184.425 193.529,184.759 199.5,185.5C 203.075,186.289 206.408,187.623 209.5,189.5C 210.833,191.5 212.5,193.167 214.5,194.5C 215.167,194.833 215.833,195.167 216.5,195.5C 216.34,197.199 216.506,198.866 217,200.5C 225.929,206.845 229.762,215.512 228.5,226.5C 226.264,229.967 224.264,233.634 222.5,237.5C 219.795,239.512 217.128,241.512 214.5,243.5C 212.856,243.286 211.356,243.62 210,244.5C 209.006,249.118 208.506,253.785 208.5,258.5C 207.249,263.25 205.582,267.917 203.5,272.5C 201.611,273.604 199.945,274.937 198.5,276.5C 194.554,277.527 190.554,277.694 186.5,277C 185.944,276.617 185.611,276.117 185.5,275.5C 183.355,272.399 180.688,271.899 177.5,274C 172.643,275.407 168.643,274.24 165.5,270.5C 163.977,267.655 162.977,264.655 162.5,261.5C 162.136,253.993 161.47,246.659 160.5,239.5C 159.833,239.167 159.167,238.833 158.5,238.5C 157.167,236.5 155.5,234.833 153.5,233.5C 152.326,232.486 151.66,231.153 151.5,229.5C 151.167,228.167 150.833,226.833 150.5,225.5C 150.5,220.5 150.5,215.5 150.5,210.5C 151.11,209.609 151.443,208.609 151.5,207.5C 154.833,204.833 157.833,201.833 160.5,198.5C 163.574,194.922 166.907,191.422 170.5,188C 173.793,185.758 177.46,184.591 181.5,184.5 Z"/></g>
<g><path style="opacity:1" fill="#584137" d="M 302.5,178.5 C 301.435,189.189 295.769,193.189 285.5,190.5C 287.857,190.663 290.19,190.497 292.5,190C 297.102,187.234 300.435,183.401 302.5,178.5 Z"/></g>
<g><path style="opacity:1" fill="#6f6f6f" d="M 45.5,175.5 C 46.6129,176.946 46.7796,178.613 46,180.5C 44.0969,187.373 41.9302,194.04 39.5,200.5C 41.5,192.167 43.5,183.833 45.5,175.5 Z"/></g>
<g><path style="opacity:1" fill="#edb8ba" d="M 267.5,178.5 C 267.878,180.921 268.545,183.254 269.5,185.5C 266.447,189.361 262.447,191.861 257.5,193C 251.425,193.486 245.425,192.986 239.5,191.5C 237.929,189.365 236.596,187.032 235.5,184.5C 243.147,185.891 250.813,186.724 258.5,187C 260.09,185.954 261.59,184.787 263,183.5C 263.612,180.885 265.112,179.219 267.5,178.5 Z"/></g>
<g><path style="opacity:1" fill="#20666c" d="M 209.5,189.5 C 212.167,190.167 213.833,191.833 214.5,194.5C 212.5,193.167 210.833,191.5 209.5,189.5 Z"/></g>
<g><path style="opacity:1" fill="#fde5e6" d="M 269.5,185.5 C 273.444,192.479 279.444,196.479 287.5,197.5C 288.776,202.993 290.443,208.326 292.5,213.5C 272.208,217.93 255.375,212.263 242,196.5C 240.906,194.922 240.072,193.255 239.5,191.5C 245.425,192.986 251.425,193.486 257.5,193C 262.447,191.861 266.447,189.361 269.5,185.5 Z"/></g>
<g><path style="opacity:1" fill="#4d4d4d" d="M 397.5,190.5 C 398.924,192.515 399.59,194.848 399.5,197.5C 398.076,195.485 397.41,193.152 397.5,190.5 Z"/></g>
<g><path style="opacity:1" fill="#47b5be" d="M 218.5,190.5 C 222.872,200.914 227.538,211.247 232.5,221.5C 231.025,223.007 229.691,224.673 228.5,226.5C 229.762,215.512 225.929,206.845 217,200.5C 216.506,198.866 216.34,197.199 216.5,195.5C 218.256,194.448 218.923,192.781 218.5,190.5 Z"/></g>
<g><path style="opacity:1" fill="#ecb7b9" d="M 287.5,197.5 C 289.5,197.5 291.5,197.5 293.5,197.5C 295.414,202.046 297.08,206.713 298.5,211.5C 296.421,211.971 294.421,212.637 292.5,213.5C 290.443,208.326 288.776,202.993 287.5,197.5 Z"/></g>
<g><path style="opacity:1" fill="#364144" d="M 160.5,198.5 C 157.833,201.833 154.833,204.833 151.5,207.5C 153.5,203.5 156.5,200.5 160.5,198.5 Z"/></g>
<g><path style="opacity:1" fill="#747474" d="M 39.5,200.5 C 39.4349,203.428 38.7682,206.095 37.5,208.5C 37.2938,205.505 37.9605,202.838 39.5,200.5 Z"/></g>
<g><path style="opacity:1" fill="#efcd9b" d="M 165.5,203.5 C 168.668,209.656 173.668,213.656 180.5,215.5C 184.072,216.903 187.905,217.569 192,217.5C 195.477,217.672 198.644,217.006 201.5,215.5C 203.921,215.122 206.254,214.455 208.5,213.5C 211.732,213.228 213.732,211.562 214.5,208.5C 217.62,207.553 219.62,208.887 220.5,212.5C 222.143,216.3 222.81,220.3 222.5,224.5C 218.688,236.748 210.354,241.248 197.5,238C 196.692,237.692 196.025,237.192 195.5,236.5C 192.5,236.167 189.5,235.833 186.5,235.5C 178.996,236.398 171.662,236.398 164.5,235.5C 163.415,233.413 161.749,232.08 159.5,231.5C 157.412,229.664 156.079,227.331 155.5,224.5C 155.489,222.453 155.156,220.453 154.5,218.5C 155.762,215.978 156.429,213.311 156.5,210.5C 156.427,208.973 157.094,207.973 158.5,207.5C 160.833,206.167 163.167,204.833 165.5,203.5 Z"/></g>
<g><path style="opacity:1" fill="#a78f6d" d="M 165.5,203.5 C 163.167,204.833 160.833,206.167 158.5,207.5C 160.086,204.139 162.419,202.806 165.5,203.5 Z"/></g>
<g><path style="opacity:1" fill="#a08b6a" d="M 214.5,208.5 C 213.732,211.562 211.732,213.228 208.5,213.5C 210.46,211.844 212.46,210.177 214.5,208.5 Z"/></g>
<g><path style="opacity:1" fill="#616161" d="M 400.5,201.5 C 401.617,205.295 402.283,209.295 402.5,213.5C 400.864,209.79 400.198,205.79 400.5,201.5 Z"/></g>
<g><path style="opacity:1" fill="#6a5c46" d="M 180.5,215.5 C 187.518,216.541 194.518,216.541 201.5,215.5C 198.644,217.006 195.477,217.672 192,217.5C 187.905,217.569 184.072,216.903 180.5,215.5 Z"/></g>
<g><path style="opacity:1" fill="#222829" d="M 150.5,210.5 C 150.5,215.5 150.5,220.5 150.5,225.5C 149.883,225.389 149.383,225.056 149,224.5C 148.833,222.5 148.667,220.5 148.5,218.5C 148.287,215.473 148.953,212.807 150.5,210.5 Z"/></g>
<g><path style="opacity:1" fill="#5f696a" d="M 43.5,211.5 C 43.5797,214.781 42.913,217.781 41.5,220.5C 41.4203,217.219 42.087,214.219 43.5,211.5 Z"/></g>
<g><path style="opacity:1" fill="#615541" d="M 220.5,212.5 C 221.79,213.058 222.623,214.058 223,215.5C 223.805,218.696 223.638,221.696 222.5,224.5C 222.81,220.3 222.143,216.3 220.5,212.5 Z"/></g>
<g><path style="opacity:1" fill="#5c5c5c" d="M 402.5,213.5 C 403.768,215.905 404.435,218.572 404.5,221.5C 402.96,219.162 402.294,216.495 402.5,213.5 Z"/></g>
<g><path style="opacity:1" fill="#947f60" d="M 156.5,210.5 C 156.429,213.311 155.762,215.978 154.5,218.5C 155.156,220.453 155.489,222.453 155.5,224.5C 152.624,219.622 152.958,214.955 156.5,210.5 Z"/></g>
<g><path style="opacity:1" fill="#2ab2bc" d="M 397.5,219.5 C 398.828,225.059 400.161,230.726 401.5,236.5C 402.299,249.484 402.633,262.484 402.5,275.5C 403.064,295.731 399.23,315.064 391,333.5C 383.873,375.925 376.873,418.258 370,460.5C 365.002,474.824 356.836,486.991 345.5,497C 326.81,505.507 307.144,509.34 286.5,508.5C 291.651,507.673 296.984,507.173 302.5,507C 301.859,504.422 301.525,501.755 301.5,499C 302.622,488.859 303.455,478.692 304,468.5C 310.148,425.875 327.815,388.875 357,357.5C 363.938,345.953 370.605,334.287 377,322.5C 384.595,299.862 390.929,276.862 396,253.5C 396.693,242.172 397.193,230.839 397.5,219.5 Z"/></g>
<g><path style="opacity:1" fill="#9f8a69" d="M 159.5,231.5 C 161.749,232.08 163.415,233.413 164.5,235.5C 162.251,234.92 160.585,233.587 159.5,231.5 Z"/></g>
<g><path style="opacity:1" fill="#226d72" d="M 153.5,233.5 C 155.5,234.833 157.167,236.5 158.5,238.5C 155.833,237.833 154.167,236.167 153.5,233.5 Z"/></g>
<g><path style="opacity:1" fill="#2d9097" d="M 228.5,226.5 C 227.357,229.684 226.691,233.017 226.5,236.5C 225.041,236.433 223.708,236.766 222.5,237.5C 224.264,233.634 226.264,229.967 228.5,226.5 Z"/></g>
<g><path style="opacity:1" fill="#7c7c7c" d="M 37.5,208.5 C 36.9636,215.181 36.297,221.848 35.5,228.5C 34.5056,238.987 34.1722,249.654 34.5,260.5C 33.341,249.674 33.1743,238.674 34,227.5C 34.5394,220.916 35.7061,214.583 37.5,208.5 Z"/></g>
<g><path style="opacity:1" fill="#f5fafb" d="M 137.5,280.5 C 136.77,284.031 136.104,287.697 135.5,291.5C 132.167,293.252 130.501,292.252 130.5,288.5C 130.5,288.167 130.5,287.833 130.5,287.5C 131.468,285.393 131.802,283.059 131.5,280.5C 131.657,279.127 131.49,277.793 131,276.5C 123.449,266.908 122.449,256.574 128,245.5C 129.723,242.275 132.223,239.942 135.5,238.5C 137.266,238.434 138.266,239.268 138.5,241C 137.076,244.092 135.243,246.926 133,249.5C 128.965,258.191 129.965,266.191 136,273.5C 136.977,275.74 137.477,278.073 137.5,280.5 Z"/></g>
<g><path style="opacity:1" fill="#363636" d="M 35.5,228.5 C 35.5,250.167 35.5,271.833 35.5,293.5C 33.6393,282.668 33.306,271.668 34.5,260.5C 34.1722,249.654 34.5056,238.987 35.5,228.5 Z"/></g>
<g><path style="opacity:1" fill="#c2c4c4" d="M 180.5,241.5 C 176.03,242.486 171.363,242.819 166.5,242.5C 166.5,245.833 166.5,249.167 166.5,252.5C 166.167,252.5 165.833,252.5 165.5,252.5C 165.5,248.833 165.5,245.167 165.5,241.5C 170.5,241.5 175.5,241.5 180.5,241.5 Z"/></g>
<g><path style="opacity:1" fill="#fafafa" d="M 180.5,241.5 C 181.5,241.5 182.5,241.5 183.5,241.5C 184.506,251.306 182.339,260.306 177,268.5C 171.33,270.034 168.163,267.701 167.5,261.5C 167.037,258.518 166.704,255.518 166.5,252.5C 166.5,249.167 166.5,245.833 166.5,242.5C 171.363,242.819 176.03,242.486 180.5,241.5 Z"/></g>
<g><path style="opacity:1" fill="#f6f6f6" d="M 193.5,242.5 C 196.91,242.457 200.243,242.957 203.5,244C 204.059,244.725 204.392,245.558 204.5,246.5C 203.585,252.151 202.752,257.818 202,263.5C 201.065,266.595 199.231,268.929 196.5,270.5C 192.556,270.887 188.889,270.22 185.5,268.5C 184.861,267.903 184.528,267.07 184.5,266C 185.322,263.528 185.989,261.028 186.5,258.5C 187.167,257.5 187.833,256.5 188.5,255.5C 189.485,251.366 189.818,247.032 189.5,242.5C 190.833,242.5 192.167,242.5 193.5,242.5 Z"/></g>
<g><path style="opacity:1" fill="#2b8b92" d="M 222.5,237.5 C 221.256,241.412 218.589,243.412 214.5,243.5C 217.128,241.512 219.795,239.512 222.5,237.5 Z"/></g>
<g><path style="opacity:1" fill="#f4fafa" d="M 123.5,280.5 C 123.5,283.167 123.5,285.833 123.5,288.5C 122.61,292.981 120.277,296.314 116.5,298.5C 114.5,298.5 113.5,297.5 113.5,295.5C 114.489,293.506 115.489,291.506 116.5,289.5C 116.5,289.167 116.5,288.833 116.5,288.5C 117.338,288.158 117.672,287.492 117.5,286.5C 118.833,284.833 118.833,283.167 117.5,281.5C 115.945,278.06 114.112,274.727 112,271.5C 108.402,262.538 109.069,253.871 114,245.5C 115.789,243.771 117.956,243.104 120.5,243.5C 118.227,249.357 116.894,255.524 116.5,262C 116.667,263.833 116.833,265.667 117,267.5C 119.726,271.619 121.893,275.952 123.5,280.5 Z"/></g>
<g><path style="opacity:1" fill="#113538" d="M 160.5,239.5 C 161.47,246.659 162.136,253.993 162.5,261.5C 161.778,261.082 161.278,260.416 161,259.5C 160.5,252.842 160.334,246.175 160.5,239.5 Z"/></g>
<g><path style="opacity:1" fill="#29848a" d="M 214.5,243.5 C 212.856,244.316 211.69,245.65 211,247.5C 210.367,251.347 209.533,255.014 208.5,258.5C 208.506,253.785 209.006,249.118 210,244.5C 211.356,243.62 212.856,243.286 214.5,243.5 Z"/></g>
<g><path style="opacity:1" fill="#f4f9fa" d="M 153.5,281.5 C 154.091,286.533 153.091,291.2 150.5,295.5C 148.955,296.452 147.288,296.785 145.5,296.5C 145.405,293.303 146.072,290.303 147.5,287.5C 147.5,285.167 147.5,282.833 147.5,280.5C 147.245,277.984 146.411,275.65 145,273.5C 138.58,267.661 136.913,260.661 140,252.5C 142.423,249.568 145.257,247.235 148.5,245.5C 150.312,245.952 151.312,247.118 151.5,249C 149.72,251.784 147.553,254.284 145,256.5C 144.21,259.634 144.543,262.634 146,265.5C 150.572,269.893 153.072,275.226 153.5,281.5 Z"/></g>
<g><path style="opacity:1" fill="#bebfbf" d="M 193.5,242.5 C 192.167,242.5 190.833,242.5 189.5,242.5C 189.818,247.032 189.485,251.366 188.5,255.5C 188.5,253.833 188.5,252.167 188.5,250.5C 188.5,247.5 188.5,244.5 188.5,241.5C 190.415,241.216 192.081,241.549 193.5,242.5 Z"/></g>
<g><path style="opacity:1" fill="#6c6e6e" d="M 188.5,250.5 C 188.5,252.167 188.5,253.833 188.5,255.5C 187.833,256.5 187.167,257.5 186.5,258.5C 186.565,255.572 187.232,252.905 188.5,250.5 Z"/></g>
<g><path style="opacity:1" fill="#7e7e7e" d="M 407.5,240.5 C 409.012,247.605 409.679,254.938 409.5,262.5C 409.499,267.678 409.166,272.678 408.5,277.5C 408.649,265.148 408.315,252.815 407.5,240.5 Z"/></g>
<g><path style="opacity:1" fill="#7a7b7b" d="M 165.5,252.5 C 165.833,252.5 166.167,252.5 166.5,252.5C 166.704,255.518 167.037,258.518 167.5,261.5C 165.882,258.829 165.215,255.829 165.5,252.5 Z"/></g>
<g><path style="opacity:1" fill="#3c898e" d="M 401.5,236.5 C 402.995,244.111 403.662,251.944 403.5,260C 403.499,265.344 403.166,270.511 402.5,275.5C 402.633,262.484 402.299,249.484 401.5,236.5 Z"/></g>
<g><path style="opacity:1" fill="#b5b7b7" d="M 185.5,268.5 C 188.889,270.22 192.556,270.887 196.5,270.5C 195.848,271.725 194.681,272.392 193,272.5C 189.671,272.587 187.171,271.254 185.5,268.5 Z"/></g>
<g><path style="opacity:1" fill="#2b8990" d="M 208.5,258.5 C 209.554,264.297 207.887,268.964 203.5,272.5C 205.582,267.917 207.249,263.25 208.5,258.5 Z"/></g>
<g><path style="opacity:1" fill="#2b8b92" d="M 165.5,270.5 C 168.643,274.24 172.643,275.407 177.5,274C 180.688,271.899 183.355,272.399 185.5,275.5C 184.033,275.106 182.533,274.773 181,274.5C 176.95,276.444 172.783,276.778 168.5,275.5C 167.048,274.06 166.048,272.394 165.5,270.5 Z"/></g>
<g><path style="opacity:1" fill="#25777e" d="M 203.5,272.5 C 202.871,274.997 201.204,276.33 198.5,276.5C 199.945,274.937 201.611,273.604 203.5,272.5 Z"/></g>
<g><path style="opacity:1" fill="#42777b" d="M 117.5,281.5 C 118.833,283.167 118.833,284.833 117.5,286.5C 117.5,285.167 117.5,283.833 117.5,282.5C 113.466,282.505 109.466,282.838 105.5,283.5C 109.183,281.75 113.183,281.083 117.5,281.5 Z"/></g>
<g><path style="opacity:1" fill="#111717" d="M 137.5,280.5 C 140.833,280.5 144.167,280.5 147.5,280.5C 147.5,282.833 147.5,285.167 147.5,287.5C 144.167,287.5 140.833,287.5 137.5,287.5C 137.5,285.167 137.5,282.833 137.5,280.5 Z"/></g>
<g><path style="opacity:1" fill="#0c0c0c" d="M 154.5,281.5 C 163.471,282.328 172.138,284.328 180.5,287.5C 183.088,289.592 186.088,290.925 189.5,291.5C 194.457,294.623 198.624,298.623 202,303.5C 202.82,310.014 202.653,316.347 201.5,322.5C 200.475,325.974 199.808,329.64 199.5,333.5C 198.728,337.452 198.395,341.452 198.5,345.5C 196.733,349.908 196.233,354.574 197,359.5C 198.699,360.406 200.533,360.739 202.5,360.5C 205.977,361.742 208.977,363.742 211.5,366.5C 211.733,368.062 212.4,369.395 213.5,370.5C 214.307,376.464 214.64,382.464 214.5,388.5C 214.13,392.289 212.797,395.622 210.5,398.5C 208.413,399.585 207.08,401.251 206.5,403.5C 203.319,407.041 199.652,409.707 195.5,411.5C 192.454,411.183 190.787,412.516 190.5,415.5C 190.5,416.167 190.5,416.833 190.5,417.5C 189.482,422.984 188.816,428.651 188.5,434.5C 186.836,437.159 185.17,439.825 183.5,442.5C 177.446,450.037 169.779,455.37 160.5,458.5C 157.833,458.833 155.167,459.167 152.5,459.5C 141.833,459.5 131.167,459.5 120.5,459.5C 112.944,458.219 105.944,455.553 99.5,451.5C 92.3014,447.971 86.3014,442.971 81.5,436.5C 80.176,432.479 79.176,428.479 78.5,424.5C 78.2401,418.828 77.9068,413.161 77.5,407.5C 75.5853,407.784 73.9187,407.451 72.5,406.5C 70.1377,403.808 67.8044,401.141 65.5,398.5C 65.0075,396.181 64.0075,394.181 62.5,392.5C 61.8294,386.302 62.8294,380.468 65.5,375C 63.9619,372.189 62.9619,369.189 62.5,366C 62.5085,364.293 62.8418,362.793 63.5,361.5C 64.9063,361.027 65.573,360.027 65.5,358.5C 66.0798,356.251 67.4131,354.585 69.5,353.5C 70.8799,353.038 71.5466,352.038 71.5,350.5C 70.9397,345.676 70.273,341.01 69.5,336.5C 69.7471,333.061 69.4137,329.728 68.5,326.5C 67.5589,319.794 67.5589,313.128 68.5,306.5C 68.3284,305.508 68.6618,304.842 69.5,304.5C 72.2427,302.761 74.2427,300.427 75.5,297.5C 75.8333,296.5 76.5,295.833 77.5,295.5C 79.7488,294.92 81.4154,293.587 82.5,291.5C 84.698,291.88 86.3646,291.213 87.5,289.5C 92.4225,288.364 97.0891,286.697 101.5,284.5C 102.568,283.566 103.901,283.232 105.5,283.5C 109.466,282.838 113.466,282.505 117.5,282.5C 117.5,283.833 117.5,285.167 117.5,286.5C 117.672,287.492 117.338,288.158 116.5,288.5C 111.739,288.124 107.405,289.124 103.5,291.5C 99.0293,292.063 94.6959,293.23 90.5,295C 88.7669,296.189 87.1002,297.356 85.5,298.5C 78.8676,300.963 76.3676,305.63 78,312.5C 78.3826,313.056 78.8826,313.389 79.5,313.5C 80.1667,313.833 80.8333,314.167 81.5,314.5C 82.1667,315.833 83.1667,316.833 84.5,317.5C 90.6981,322.092 97.6981,324.759 105.5,325.5C 107.877,326.887 110.543,327.721 113.5,328C 127.673,328.827 141.673,328.661 155.5,327.5C 167.074,326.286 178.074,323.119 188.5,318C 190.037,316.89 190.703,315.39 190.5,313.5C 195.352,310.187 195.686,306.354 191.5,302C 188.554,299.187 185.221,296.854 181.5,295C 172.966,292.398 164.3,290.398 155.5,289C 154.565,286.619 154.232,284.119 154.5,281.5 Z"/></g>
<g><path style="opacity:1" fill="#62686a" d="M 123.5,280.5 C 126.167,280.5 128.833,280.5 131.5,280.5C 131.802,283.059 131.468,285.393 130.5,287.5C 130.5,287.833 130.5,288.167 130.5,288.5C 128.167,288.5 125.833,288.5 123.5,288.5C 123.5,285.833 123.5,283.167 123.5,280.5 Z"/></g>
<g><path style="opacity:1" fill="#0d0f0f" d="M 130.5,287.5 C 128.5,287.5 126.5,287.5 124.5,287.5C 124.5,285.5 124.5,283.5 124.5,281.5C 126.5,281.5 128.5,281.5 130.5,281.5C 130.5,283.5 130.5,285.5 130.5,287.5 Z"/></g>
<g><path style="opacity:1" fill="#266b70" d="M 180.5,287.5 C 184.165,287.502 187.165,288.835 189.5,291.5C 186.088,290.925 183.088,289.592 180.5,287.5 Z"/></g>
<g><path style="opacity:1" fill="#13373a" d="M 101.5,284.5 C 97.0891,286.697 92.4225,288.364 87.5,289.5C 91.6642,286.666 96.3308,284.999 101.5,284.5 Z"/></g>
<g><path style="opacity:1" fill="#3f4045" d="M 116.5,288.5 C 116.5,288.833 116.5,289.167 116.5,289.5C 112.094,289.748 107.76,290.415 103.5,291.5C 107.405,289.124 111.739,288.124 116.5,288.5 Z"/></g>
<g><path style="opacity:1" fill="#8f909f" d="M 137.5,280.5 C 137.5,282.833 137.5,285.167 137.5,287.5C 140.833,287.5 144.167,287.5 147.5,287.5C 146.072,290.303 145.405,293.303 145.5,296.5C 147.288,296.785 148.955,296.452 150.5,295.5C 153.091,291.2 154.091,286.533 153.5,281.5C 153.833,281.5 154.167,281.5 154.5,281.5C 154.232,284.119 154.565,286.619 155.5,289C 164.3,290.398 172.966,292.398 181.5,295C 185.221,296.854 188.554,299.187 191.5,302C 195.686,306.354 195.352,310.187 190.5,313.5C 184.472,311.407 178.139,309.74 171.5,308.5C 159.787,306.113 147.953,304.113 136,302.5C 125.759,303.008 115.592,304.175 105.5,306C 101.186,307.372 97.1865,309.205 93.5,311.5C 91.302,311.12 89.6354,311.787 88.5,313.5C 86.0971,313.448 83.7638,313.781 81.5,314.5C 80.8333,314.167 80.1667,313.833 79.5,313.5C 78.5651,310.887 78.3985,308.221 79,305.5C 81.3722,303.297 83.5389,300.963 85.5,298.5C 87.1002,297.356 88.7669,296.189 90.5,295C 94.6959,293.23 99.0293,292.063 103.5,291.5C 107.76,290.415 112.094,289.748 116.5,289.5C 115.489,291.506 114.489,293.506 113.5,295.5C 113.5,297.5 114.5,298.5 116.5,298.5C 120.277,296.314 122.61,292.981 123.5,288.5C 125.833,288.5 128.167,288.5 130.5,288.5C 130.501,292.252 132.167,293.252 135.5,291.5C 136.104,287.697 136.77,284.031 137.5,280.5 Z"/></g>
<g><path style="opacity:1" fill="#174346" d="M 87.5,289.5 C 86.3646,291.213 84.698,291.88 82.5,291.5C 83.6354,289.787 85.302,289.12 87.5,289.5 Z"/></g>
<g><path style="opacity:1" fill="#154548" d="M 82.5,291.5 C 81.4154,293.587 79.7488,294.92 77.5,295.5C 78.5846,293.413 80.2512,292.08 82.5,291.5 Z"/></g>
<g><path style="opacity:1" fill="#143f42" d="M 75.5,297.5 C 74.2427,300.427 72.2427,302.761 69.5,304.5C 70.7573,301.573 72.7573,299.239 75.5,297.5 Z"/></g>
<g><path style="opacity:1" fill="#614001" d="M 171.5,308.5 C 178.139,309.74 184.472,311.407 190.5,313.5C 190.703,315.39 190.037,316.89 188.5,318C 178.074,323.119 167.074,326.286 155.5,327.5C 138.776,327.879 122.11,327.213 105.5,325.5C 97.6981,324.759 90.6981,322.092 84.5,317.5C 84.5,316.5 84.5,315.5 84.5,314.5C 86.099,314.768 87.4324,314.434 88.5,313.5C 89.6354,311.787 91.302,311.12 93.5,311.5C 100.346,310.412 107.012,308.579 113.5,306C 121.326,305.381 129.159,304.881 137,304.5C 148.439,306.012 159.939,307.345 171.5,308.5 Z"/></g>
<g><path style="opacity:1" fill="#6e5326" d="M 171.5,308.5 C 159.939,307.345 148.439,306.012 137,304.5C 129.159,304.881 121.326,305.381 113.5,306C 107.012,308.579 100.346,310.412 93.5,311.5C 97.1865,309.205 101.186,307.372 105.5,306C 115.592,304.175 125.759,303.008 136,302.5C 147.953,304.113 159.787,306.113 171.5,308.5 Z"/></g>
<g><path style="opacity:1" fill="#306e73" d="M 68.5,306.5 C 67.5589,313.128 67.5589,319.794 68.5,326.5C 66.7421,320.4 66.2421,314.066 67,307.5C 67.3826,306.944 67.8826,306.611 68.5,306.5 Z"/></g>
<g><path style="opacity:1" fill="#40454b" d="M 85.5,298.5 C 83.5389,300.963 81.3722,303.297 79,305.5C 78.3985,308.221 78.5651,310.887 79.5,313.5C 78.8826,313.389 78.3826,313.056 78,312.5C 76.3676,305.63 78.8676,300.963 85.5,298.5 Z"/></g>
<g><path style="opacity:1" fill="#736550" d="M 88.5,313.5 C 87.4324,314.434 86.099,314.768 84.5,314.5C 84.5,315.5 84.5,316.5 84.5,317.5C 83.1667,316.833 82.1667,315.833 81.5,314.5C 83.7638,313.781 86.0971,313.448 88.5,313.5 Z"/></g>
<g><path style="opacity:1" fill="#8f91a2" d="M 78.5,321.5 C 80.2976,323.112 82.2976,324.612 84.5,326C 90.3053,327.547 95.972,329.38 101.5,331.5C 103.838,333.04 106.505,333.706 109.5,333.5C 110.5,333.5 111.5,333.5 112.5,333.5C 115.167,334.167 117.833,334.833 120.5,335.5C 137.119,336.917 153.786,336.084 170.5,333C 174.848,331.621 178.848,329.787 182.5,327.5C 183.167,327.5 183.833,327.5 184.5,327.5C 186.827,327.753 188.827,327.086 190.5,325.5C 190.833,326.333 191.167,327.167 191.5,328C 190.614,333.797 190.28,339.631 190.5,345.5C 190.515,349.56 190.015,353.56 189,357.5C 187.556,359.155 185.722,359.822 183.5,359.5C 183.663,357.143 183.497,354.81 183,352.5C 178.158,347.701 172.325,346.201 165.5,348C 164.619,348.708 163.953,349.542 163.5,350.5C 160.483,352.615 159.816,355.282 161.5,358.5C 162.122,359.627 162.955,360.627 164,361.5C 164.667,362.833 164.667,364.167 164,365.5C 153.626,372.29 147.959,381.624 147,393.5C 148.277,395.747 149.777,397.747 151.5,399.5C 151.335,402.518 151.502,405.518 152,408.5C 152.383,409.056 152.883,409.389 153.5,409.5C 154.167,409.833 154.833,410.167 155.5,410.5C 157.381,413.452 160.048,415.452 163.5,416.5C 164.519,418.46 164.519,420.46 163.5,422.5C 159.558,427.018 159.558,431.684 163.5,436.5C 165.765,437.647 168.098,437.814 170.5,437C 174.754,433.253 178.421,429.086 181.5,424.5C 182.513,428.955 182.013,433.289 180,437.5C 173.49,447.42 164.324,452.92 152.5,454C 139.73,455.013 127.063,454.513 114.5,452.5C 112.165,449.835 109.165,448.502 105.5,448.5C 92.982,443.32 86.3153,433.986 85.5,420.5C 85.4138,413.963 84.7472,407.63 83.5,401.5C 82.7834,396.201 82.1167,390.867 81.5,385.5C 80.5924,371.317 79.2591,357.317 77.5,343.5C 77.7359,340.391 77.4025,337.391 76.5,334.5C 75.9031,329.706 76.5698,325.373 78.5,321.5 Z"/></g>
<g><path style="opacity:1" fill="#57575e" d="M 78.5,321.5 C 76.5698,325.373 75.9031,329.706 76.5,334.5C 75.5139,330.03 75.1805,325.363 75.5,320.5C 76.791,320.263 77.791,320.596 78.5,321.5 Z"/></g>
<g><path style="opacity:1" fill="#4f3506" d="M 105.5,325.5 C 122.11,327.213 138.776,327.879 155.5,327.5C 141.673,328.661 127.673,328.827 113.5,328C 110.543,327.721 107.877,326.887 105.5,325.5 Z"/></g>
<g><path style="opacity:1" fill="#4a7477" d="M 201.5,322.5 C 201.884,326.489 201.217,330.155 199.5,333.5C 199.808,329.64 200.475,325.974 201.5,322.5 Z"/></g>
<g><path style="opacity:1" fill="#4a4a4f" d="M 101.5,331.5 C 104.428,331.565 107.095,332.232 109.5,333.5C 106.505,333.706 103.838,333.04 101.5,331.5 Z"/></g>
<g><path style="opacity:1" fill="#303033" d="M 112.5,333.5 C 122.817,334.226 133.15,334.56 143.5,334.5C 136.018,335.492 128.352,335.825 120.5,335.5C 117.833,334.833 115.167,334.167 112.5,333.5 Z"/></g>
<g><path style="opacity:1" fill="#6b6d76" d="M 182.5,327.5 C 178.848,329.787 174.848,331.621 170.5,333C 153.786,336.084 137.119,336.917 120.5,335.5C 128.352,335.825 136.018,335.492 143.5,334.5C 156.99,334.67 169.99,332.336 182.5,327.5 Z"/></g>
<g><path style="opacity:1" fill="#646464" d="M 35.5,305.5 C 35.6368,320.181 35.3035,334.848 34.5,349.5C 34.1667,349.5 33.8333,349.5 33.5,349.5C 33.9471,334.667 34.6138,320.001 35.5,305.5 Z"/></g>
<g><path style="opacity:1" fill="#71727d" d="M 190.5,345.5 C 190.28,339.631 190.614,333.797 191.5,328C 191.167,327.167 190.833,326.333 190.5,325.5C 188.827,327.086 186.827,327.753 184.5,327.5C 186.503,325.018 189.169,324.018 192.5,324.5C 192.232,331.683 191.565,338.683 190.5,345.5 Z"/></g>
<g><path style="opacity:1" fill="#588589" d="M 69.5,336.5 C 70.273,341.01 70.9397,345.676 71.5,350.5C 71.5466,352.038 70.8799,353.038 69.5,353.5C 69.5,347.833 69.5,342.167 69.5,336.5 Z"/></g>
<g><path style="opacity:1" fill="#444449" d="M 163.5,350.5 C 161.954,352.882 161.287,355.549 161.5,358.5C 159.816,355.282 160.483,352.615 163.5,350.5 Z"/></g>
<g><path style="opacity:1" fill="#4e6668" d="M 198.5,345.5 C 198.244,349.862 198.077,354.195 198,358.5C 199.622,359.099 201.122,359.766 202.5,360.5C 200.533,360.739 198.699,360.406 197,359.5C 196.233,354.574 196.733,349.908 198.5,345.5 Z"/></g>
<g><path style="opacity:1" fill="#466566" d="M 65.5,358.5 C 65.573,360.027 64.9063,361.027 63.5,361.5C 63.427,359.973 64.0937,358.973 65.5,358.5 Z"/></g>
<g><path style="opacity:1" fill="#5aa3a8" d="M 202.5,360.5 C 205.167,360.833 207.833,361.167 210.5,361.5C 210.629,363.216 210.962,364.883 211.5,366.5C 208.977,363.742 205.977,361.742 202.5,360.5 Z"/></g>
<g><path style="opacity:1" fill="#605749" d="M 72.5,362.5 C 71.5041,362.414 70.6708,362.748 70,363.5C 69.5065,365.134 69.3398,366.801 69.5,368.5C 67.8122,365.316 68.4789,362.65 71.5,360.5C 72.2975,360.957 72.6309,361.624 72.5,362.5 Z"/></g>
<g><path style="opacity:1" fill="#8d795c" d="M 204.5,367.5 C 199.207,366.554 193.874,365.887 188.5,365.5C 188.5,366.5 188.5,367.5 188.5,368.5C 187.566,367.432 187.232,366.099 187.5,364.5C 192.536,364.588 197.536,365.088 202.5,366C 203.416,366.278 204.082,366.778 204.5,367.5 Z"/></g>
<g><path style="opacity:1" fill="#ecca99" d="M 204.5,367.5 C 208.894,371.004 210.894,375.671 210.5,381.5C 210.355,386.265 209.021,390.598 206.5,394.5C 204.738,395.262 203.738,396.596 203.5,398.5C 200.793,400.843 198.126,403.177 195.5,405.5C 193.5,405.833 191.5,406.167 189.5,406.5C 189.5,404.167 189.5,401.833 189.5,399.5C 190.222,399.082 190.722,398.416 191,397.5C 191.823,388.99 191.657,380.656 190.5,372.5C 189.833,371.167 189.167,369.833 188.5,368.5C 188.5,367.5 188.5,366.5 188.5,365.5C 193.874,365.887 199.207,366.554 204.5,367.5 Z"/></g>
<g><path style="opacity:1" fill="#333333" d="M 33.5,349.5 C 33.8333,349.5 34.1667,349.5 34.5,349.5C 34.5,360.833 34.5,372.167 34.5,383.5C 34.1667,383.5 33.8333,383.5 33.5,383.5C 33.194,372.505 33.194,361.171 33.5,349.5 Z"/></g>
<g><path style="opacity:1" fill="#eecc9a" d="M 169.5,372.5 C 169.259,374.898 169.926,376.898 171.5,378.5C 171.5,378.833 171.5,379.167 171.5,379.5C 171.915,388.305 171.248,396.972 169.5,405.5C 169.5,406.833 169.5,408.167 169.5,409.5C 166.43,409.632 163.43,409.299 160.5,408.5C 159.167,407.833 158.167,406.833 157.5,405.5C 157.5,404.5 157.5,403.5 157.5,402.5C 159.927,402.477 162.26,401.977 164.5,401C 165.807,399.057 165.807,397.223 164.5,395.5C 161.103,394.802 157.603,394.135 154,393.5C 153.182,390.773 153.348,388.106 154.5,385.5C 156.251,383.936 157.251,381.936 157.5,379.5C 160.297,377.205 162.964,374.705 165.5,372C 166.928,371.421 168.262,371.588 169.5,372.5 Z"/></g>
<g><path style="opacity:1" fill="#46464c" d="M 77.5,343.5 C 79.2591,357.317 80.5924,371.317 81.5,385.5C 79.1375,371.746 77.8041,357.746 77.5,343.5 Z"/></g>
<g><path style="opacity:1" fill="#9e8868" d="M 72.5,362.5 C 73.0933,371.173 73.7599,379.839 74.5,388.5C 73.718,385.286 72.8847,381.952 72,378.5C 71.0656,379.858 70.2323,381.192 69.5,382.5C 69.4734,379.77 70.1401,377.27 71.5,375C 70.9671,372.774 70.3004,370.607 69.5,368.5C 69.3398,366.801 69.5065,365.134 70,363.5C 70.6708,362.748 71.5041,362.414 72.5,362.5 Z"/></g>
<g><path style="opacity:1" fill="#877559" d="M 169.5,372.5 C 168.262,371.588 166.928,371.421 165.5,372C 162.964,374.705 160.297,377.205 157.5,379.5C 159.534,375.299 162.701,372.299 167,370.5C 168.376,370.684 169.209,371.351 169.5,372.5 Z"/></g>
<g><path style="opacity:1" fill="#616477" d="M 100.5,374.5 C 103.365,374.055 105.865,374.722 108,376.5C 108.667,388.167 108.667,399.833 108,411.5C 101.984,413.053 96.651,411.72 92,407.5C 87.6901,398.411 87.6901,389.411 92,380.5C 94.7573,378.219 97.5907,376.219 100.5,374.5 Z"/></g>
<g><path style="opacity:1" fill="#616477" d="M 118.5,374.5 C 128.309,374.488 134.476,379.154 137,388.5C 137.159,395.372 135.659,401.872 132.5,408C 130.259,409.522 127.926,410.855 125.5,412C 122.571,412.777 119.737,412.61 117,411.5C 116.833,405.5 116.667,399.5 116.5,393.5C 116.542,386.927 117.208,380.594 118.5,374.5 Z"/></g>
<g><path style="opacity:1" fill="#6b5c46" d="M 169.5,372.5 C 171.074,374.102 171.741,376.102 171.5,378.5C 169.926,376.898 169.259,374.898 169.5,372.5 Z"/></g>
<g><path style="opacity:1" fill="#3c4c4d" d="M 213.5,370.5 C 214.222,370.918 214.722,371.584 215,372.5C 215.817,378.016 215.651,383.35 214.5,388.5C 214.64,382.464 214.307,376.464 213.5,370.5 Z"/></g>
<g><path style="opacity:1" fill="#8a775a" d="M 190.5,372.5 C 191.657,380.656 191.823,388.99 191,397.5C 190.722,398.416 190.222,399.082 189.5,399.5C 189.5,398.833 189.5,398.167 189.5,397.5C 190.44,389.221 190.773,380.888 190.5,372.5 Z"/></g>
<g><path style="opacity:1" fill="#b89f79" d="M 157.5,379.5 C 157.251,381.936 156.251,383.936 154.5,385.5C 153.348,388.106 153.182,390.773 154,393.5C 157.603,394.135 161.103,394.802 164.5,395.5C 160.833,395.5 157.167,395.5 153.5,395.5C 150.137,389.085 151.471,383.752 157.5,379.5 Z"/></g>
<g><path style="opacity:1" fill="#a18a69" d="M 171.5,379.5 C 172.655,386.321 172.821,393.321 172,400.5C 171.95,402.744 171.117,404.411 169.5,405.5C 171.248,396.972 171.915,388.305 171.5,379.5 Z"/></g>
<g><path style="opacity:1" fill="#d5b78b" d="M 74.5,388.5 C 74.5,388.833 74.5,389.167 74.5,389.5C 74.8064,392.385 74.4731,395.052 73.5,397.5C 72.1667,395.833 70.8333,394.167 69.5,392.5C 68.3,389.031 68.3,385.698 69.5,382.5C 70.2323,381.192 71.0656,379.858 72,378.5C 72.8847,381.952 73.718,385.286 74.5,388.5 Z"/></g>
<g><path style="opacity:1" fill="#53898c" d="M 62.5,392.5 C 64.0075,394.181 65.0075,396.181 65.5,398.5C 63.0311,397.393 62.0311,395.393 62.5,392.5 Z"/></g>
<g><path style="opacity:1" fill="#917c5e" d="M 74.5,389.5 C 75.4511,390.919 75.7845,392.585 75.5,394.5C 75.762,395.978 75.4287,397.311 74.5,398.5C 73.8933,398.376 73.56,398.043 73.5,397.5C 74.4731,395.052 74.8064,392.385 74.5,389.5 Z"/></g>
<g><path style="opacity:1" fill="#75654d" d="M 206.5,394.5 C 206.262,396.404 205.262,397.738 203.5,398.5C 203.738,396.596 204.738,395.262 206.5,394.5 Z"/></g>
<g><path style="opacity:1" fill="#483e2f" d="M 69.5,392.5 C 70.8333,394.167 72.1667,395.833 73.5,397.5C 73.56,398.043 73.8933,398.376 74.5,398.5C 75.4287,397.311 75.762,395.978 75.5,394.5C 77.2788,400.71 75.7788,401.71 71,397.5C 70.3923,395.846 69.8923,394.179 69.5,392.5 Z"/></g>
<g><path style="opacity:1" fill="#76664e" d="M 153.5,395.5 C 157.167,395.5 160.833,395.5 164.5,395.5C 165.807,397.223 165.807,399.057 164.5,401C 162.26,401.977 159.927,402.477 157.5,402.5C 157.5,403.5 157.5,404.5 157.5,405.5C 156.402,404.399 156.235,403.066 157,401.5C 159.069,400.736 161.236,400.236 163.5,400C 164.337,398.989 164.67,397.822 164.5,396.5C 160.629,396.815 156.962,396.482 153.5,395.5 Z"/></g>
<g><path style="opacity:1" fill="#518588" d="M 65.5,398.5 C 67.8044,401.141 70.1377,403.808 72.5,406.5C 68.6858,405.026 66.3525,402.359 65.5,398.5 Z"/></g>
<g><path style="opacity:1" fill="#5b4f3c" d="M 203.5,398.5 C 202.08,402.217 199.413,404.55 195.5,405.5C 198.126,403.177 200.793,400.843 203.5,398.5 Z"/></g>
<g><path style="opacity:1" fill="#4d6768" d="M 210.5,398.5 C 209.92,400.749 208.587,402.415 206.5,403.5C 207.08,401.251 208.413,399.585 210.5,398.5 Z"/></g>
<g><path style="opacity:1" fill="#6d6d6d" d="M 386.5,393.5 C 386.461,397.733 385.795,401.733 384.5,405.5C 384.344,401.236 385.011,397.236 386.5,393.5 Z"/></g>
<g><path style="opacity:1" fill="#5b4f3c" d="M 189.5,397.5 C 189.5,398.167 189.5,398.833 189.5,399.5C 189.5,401.833 189.5,404.167 189.5,406.5C 191.5,406.167 193.5,405.833 195.5,405.5C 195.389,406.117 195.056,406.617 194.5,407C 192.527,407.495 190.527,407.662 188.5,407.5C 188.187,403.958 188.521,400.625 189.5,397.5 Z"/></g>
<g><path style="opacity:1" fill="#4d686a" d="M 206.5,403.5 C 204.536,408.458 200.87,411.125 195.5,411.5C 199.652,409.707 203.319,407.041 206.5,403.5 Z"/></g>
<g><path style="opacity:1" fill="#45464a" d="M 83.5,401.5 C 84.7472,407.63 85.4138,413.963 85.5,420.5C 84.0035,414.395 83.3369,408.062 83.5,401.5 Z"/></g>
<g><path style="opacity:1" fill="#525357" d="M 151.5,399.5 C 152.323,402.684 152.99,406.017 153.5,409.5C 152.883,409.389 152.383,409.056 152,408.5C 151.502,405.518 151.335,402.518 151.5,399.5 Z"/></g>
<g><path style="opacity:1" fill="#685a45" d="M 160.5,408.5 C 163.43,409.299 166.43,409.632 169.5,409.5C 167.034,410.634 164.367,410.801 161.5,410C 160.944,409.617 160.611,409.117 160.5,408.5 Z"/></g>
<g><path style="opacity:1" fill="#454649" d="M 155.5,410.5 C 158.563,412.533 161.896,414.199 165.5,415.5C 166.469,418.264 165.802,420.598 163.5,422.5C 164.519,420.46 164.519,418.46 163.5,416.5C 160.048,415.452 157.381,413.452 155.5,410.5 Z"/></g>
<g><path style="opacity:1" fill="#556d6f" d="M 195.5,411.5 C 193.858,412.803 192.191,414.136 190.5,415.5C 190.787,412.516 192.454,411.183 195.5,411.5 Z"/></g>
<g><path style="opacity:1" fill="#5e9194" d="M 190.5,417.5 C 190.666,422.511 190.499,427.511 190,432.5C 189.722,433.416 189.222,434.082 188.5,434.5C 188.816,428.651 189.482,422.984 190.5,417.5 Z"/></g>
<g><path style="opacity:1" fill="#59999e" d="M 78.5,424.5 C 79.176,428.479 80.176,432.479 81.5,436.5C 80.5041,436.586 79.6708,436.252 79,435.5C 78.5014,431.848 78.3347,428.182 78.5,424.5 Z"/></g>
<g><path style="opacity:1" fill="#676767" d="M 33.5,383.5 C 33.8333,383.5 34.1667,383.5 34.5,383.5C 34.8205,408.674 34.8205,433.674 34.5,458.5C 33.7769,433.507 33.4435,408.507 33.5,383.5 Z"/></g>
<g><path style="opacity:1" fill="#6a6a6a" d="M 380.5,430.5 C 380.461,434.733 379.795,438.733 378.5,442.5C 378.344,438.236 379.011,434.236 380.5,430.5 Z"/></g>
<g><path style="opacity:1" fill="#4d6f71" d="M 188.5,434.5 C 188.5,438.175 186.833,440.841 183.5,442.5C 185.17,439.825 186.836,437.159 188.5,434.5 Z"/></g>
<g><path style="opacity:1" fill="#55565e" d="M 105.5,448.5 C 109.165,448.502 112.165,449.835 114.5,452.5C 111.088,451.925 108.088,450.592 105.5,448.5 Z"/></g>
<g><path style="opacity:1" fill="#52a7ae" d="M 99.5,451.5 C 105.944,455.553 112.944,458.219 120.5,459.5C 123.833,460.167 127.167,460.833 130.5,461.5C 125.489,461.666 120.489,461.499 115.5,461C 110.244,458.531 104.91,456.364 99.5,454.5C 99.5,453.5 99.5,452.5 99.5,451.5 Z"/></g>
<g><path style="opacity:1" fill="#20292a" d="M 120.5,459.5 C 131.167,459.5 141.833,459.5 152.5,459.5C 152.5,459.833 152.5,460.167 152.5,460.5C 145.178,461.038 137.845,461.371 130.5,461.5C 127.167,460.833 123.833,460.167 120.5,459.5 Z"/></g>
<g><path style="opacity:1" fill="#4b797c" d="M 160.5,458.5 C 158.162,460.04 155.495,460.706 152.5,460.5C 152.5,460.167 152.5,459.833 152.5,459.5C 155.167,459.167 157.833,458.833 160.5,458.5 Z"/></g>
<g><path style="opacity:0.337" fill="#5f5f5f" d="M 359.5,493.5 C 357.108,494.368 356.941,493.701 359,491.5C 359.464,492.094 359.631,492.761 359.5,493.5 Z"/></g>
<g><path style="opacity:0.057" fill="#000000" d="M 40.5,495.5 C 45.0857,500.628 50.7524,503.961 57.5,505.5C 59.5145,506.924 61.8478,507.59 64.5,507.5C 67.2184,508.043 69.885,508.709 72.5,509.5C 76.2148,509.423 79.8815,509.756 83.5,510.5C 83.8333,510.5 84.1667,510.5 84.5,510.5C 88.9426,511.801 93.6093,512.468 98.5,512.5C 127.581,515.486 156.748,517.486 186,518.5C 203.009,517.877 219.843,516.877 236.5,515.5C 261.521,515.166 286.521,515.166 311.5,515.5C 309.016,516.369 306.349,517.036 303.5,517.5C 297.695,516.877 291.862,516.544 286,516.5C 253.321,517.16 220.654,518.16 188,519.5C 144.653,519.139 101.487,515.305 58.5,508C 50.6393,506.275 44.6393,502.108 40.5,495.5 Z"/></g>
<g><path style="opacity:1" fill="#737373" d="M 57.5,505.5 C 60.1522,505.41 62.4855,506.076 64.5,507.5C 61.8478,507.59 59.5145,506.924 57.5,505.5 Z"/></g>
<g><path style="opacity:0.271" fill="#5b5b5b" d="M 72.5,509.5 C 73.7933,508.842 75.2933,508.508 77,508.5C 79.5437,508.336 81.7103,509.003 83.5,510.5C 79.8815,509.756 76.2148,509.423 72.5,509.5 Z"/></g>
<g><path style="opacity:1" fill="#585858" d="M 84.5,510.5 C 89.4141,510.362 94.0808,511.028 98.5,512.5C 93.6093,512.468 88.9426,511.801 84.5,510.5 Z"/></g>
<g><path style="opacity:0.235" fill="#575757" d="M 311.5,515.5 C 286.521,515.166 261.521,515.166 236.5,515.5C 263.374,514.234 290.374,513.734 317.5,514C 315.292,514.191 313.292,514.691 311.5,515.5 Z"/></g>
</svg>
